<?xml version="1.0" encoding="us-ascii" standalone="no"?><svg xmlns="http://www.w3.org/2000/svg" xmlns:xlink="http://www.w3.org/1999/xlink" contentStyleType="text/css" height="2088px" preserveAspectRatio="none" style="width:682px;height:2088px;background:#FFFFFF;" version="1.1" viewBox="0 0 682 2088" width="682px" zoomAndPan="magnify"><defs/><g><!--cluster filesystem--><g id="cluster_filesystem"><path d="M8.5,6 L85.5,6 A3.75,3.75 0 0 1 88,8.5 L95,28.4883 L641.5,28.4883 A2.5,2.5 0 0 1 644,30.9883 L644,2078.91 A2.5,2.5 0 0 1 641.5,2081.41 L8.5,2081.41 A2.5,2.5 0 0 1 6,2078.91 L6,8.5 A2.5,2.5 0 0 1 8.5,6 " fill="none" style="stroke:#000000;stroke-width:1.5;"/><line style="stroke:#000000;stroke-width:1.5;" x1="6" x2="95" y1="28.4883" y2="28.4883"/><text fill="#000000" font-family="sans-serif" font-size="14" font-weight="bold" lengthAdjust="spacing" textLength="76" x="10" y="21.5352">filesystem</text></g><!--class Item--><g id="elem_Item"><rect codeLine="4" fill="#F1F1F1" height="509.1836" id="Item" rx="2.5" ry="2.5" style="stroke:#181818;stroke-width:0.5;" width="363" x="161.5" y="41"/><ellipse cx="323.75" cy="57" fill="#A9DCDF" rx="11" ry="11" style="stroke:#181818;stroke-width:1.0;"/><path d="M323.8633,52.3481 L322.7095,57.4199 L325.0254,57.4199 Z M322.3691,50.1069 L325.3657,50.1069 L328.7109,62.5 L326.2622,62.5 L325.4985,59.437 L322.2197,59.437 L321.4727,62.5 L319.0239,62.5 Z " fill="#000000"/><text fill="#000000" font-family="sans-serif" font-size="14" font-style="italic" lengthAdjust="spacing" textLength="30" x="344.25" y="62.291">Item</text><line style="stroke:#181818;stroke-width:0.5;" x1="162.5" x2="523.5" y1="73" y2="73"/><rect fill="none" height="6" style="stroke:#C82930;stroke-width:1.0;" width="6" x="169.5" y="83.7441"/><text fill="#000000" font-family="sans-serif" font-size="14" lengthAdjust="spacing" textLength="83" x="181.5" y="90.5352">String name</text><rect fill="none" height="6" style="stroke:#C82930;stroke-width:1.0;" width="6" x="169.5" y="100.2324"/><text fill="#000000" font-family="sans-serif" font-size="14" lengthAdjust="spacing" textLength="125" x="181.5" y="107.0234">Date creationTime</text><rect fill="none" height="6" style="stroke:#C82930;stroke-width:1.0;" width="6" x="169.5" y="116.7207"/><text fill="#000000" font-family="sans-serif" font-size="14" lengthAdjust="spacing" textLength="155" x="181.5" y="123.5117">Date modificationTime</text><rect fill="none" height="6" style="stroke:#C82930;stroke-width:1.0;" width="6" x="169.5" y="133.209"/><text fill="#000000" font-family="sans-serif" font-size="14" lengthAdjust="spacing" textLength="173" x="181.5" y="140">Directory parentDirectory</text><line style="stroke:#181818;stroke-width:0.5;" x1="162.5" x2="523.5" y1="146.9531" y2="146.9531"/><ellipse cx="172.5" cy="160.6973" fill="#84BE84" rx="3" ry="3" style="stroke:#038048;stroke-width:1.0;"/><text fill="#000000" font-family="sans-serif" font-size="14" lengthAdjust="spacing" textLength="123" x="181.5" y="164.4883">Item(String name)</text><line style="stroke:#181818;stroke-width:1.0;stroke-dasharray:1.0,2.0;" x1="162.5" x2="523.5" y1="171.4414" y2="171.4414"/><ellipse cx="172.5" cy="185.1855" fill="#84BE84" rx="3" ry="3" style="stroke:#038048;stroke-width:1.0;"/><text fill="#000000" font-family="sans-serif" font-size="14" lengthAdjust="spacing" textLength="215" x="181.5" y="188.9766">void changeName(String name)</text><ellipse cx="172.5" cy="201.6738" fill="#84BE84" rx="3" ry="3" style="stroke:#038048;stroke-width:1.0;"/><text fill="#000000" font-family="sans-serif" font-size="14" lengthAdjust="spacing" textLength="145" x="181.5" y="205.4648">boolean isDeletable()</text><ellipse cx="172.5" cy="218.1621" fill="#84BE84" rx="3" ry="3" style="stroke:#038048;stroke-width:1.0;"/><text fill="#000000" font-family="sans-serif" font-size="14" lengthAdjust="spacing" textLength="170" x="181.5" y="221.9531">void delete() (destructor)</text><ellipse cx="172.5" cy="234.6504" fill="#84BE84" rx="3" ry="3" style="stroke:#038048;stroke-width:1.0;"/><text fill="#000000" font-family="sans-serif" font-size="14" lengthAdjust="spacing" textLength="335" x="181.5" y="238.4414">boolean hasOverlappingUsagePeriod(Item other)</text><ellipse cx="172.5" cy="251.1387" fill="#84BE84" rx="3" ry="3" style="stroke:#038048;stroke-width:1.0;"/><text fill="#000000" font-family="sans-serif" font-size="14" lengthAdjust="spacing" textLength="165" x="181.5" y="254.9297">void move(Directory dir)</text><ellipse cx="172.5" cy="267.627" fill="#84BE84" rx="3" ry="3" style="stroke:#038048;stroke-width:1.0;"/><text fill="#000000" font-family="sans-serif" font-size="14" lengthAdjust="spacing" textLength="130" x="181.5" y="271.418">Directory getRoot()</text><ellipse cx="172.5" cy="284.1152" fill="#84BE84" rx="3" ry="3" style="stroke:#038048;stroke-width:1.0;"/><text fill="#000000" font-family="sans-serif" font-size="14" lengthAdjust="spacing" textLength="327" x="181.5" y="287.9063">boolean isDirectOrIndirectChildOf(Directory dir)</text><ellipse cx="172.5" cy="300.6035" fill="#84BE84" rx="3" ry="3" style="stroke:#038048;stroke-width:1.0;"/><text fill="#000000" font-family="sans-serif" font-size="14" lengthAdjust="spacing" textLength="160" x="181.5" y="304.3945">int getTotalDiskUsage()</text><ellipse cx="172.5" cy="317.0918" fill="#84BE84" rx="3" ry="3" style="stroke:#038048;stroke-width:1.0;"/><text fill="#000000" font-family="sans-serif" font-size="14" lengthAdjust="spacing" textLength="168" x="181.5" y="320.8828">String getAbsolutePath()</text><ellipse cx="172.5" cy="354.0684" fill="#84BE84" rx="3" ry="3" style="stroke:#038048;stroke-width:1.0;"/><text fill="#000000" font-family="sans-serif" font-size="14" lengthAdjust="spacing" textLength="116" x="181.5" y="357.8594">String getName()</text><rect fill="#F24D5C" height="6" style="stroke:#C82930;stroke-width:1.0;" width="6" x="169.5" y="367.5566"/><text fill="#000000" font-family="sans-serif" font-size="14" lengthAdjust="spacing" textLength="185" x="181.5" y="374.3477">void setName(String name)</text><rect fill="#F24D5C" height="6" style="stroke:#C82930;stroke-width:1.0;" width="6" x="169.5" y="384.0449"/><text fill="#000000" font-family="sans-serif" font-size="14" lengthAdjust="spacing" text-decoration="underline" textLength="165" x="181.5" y="390.8359">String getDefaultName()</text><ellipse cx="172.5" cy="403.5332" fill="#84BE84" rx="3" ry="3" style="stroke:#038048;stroke-width:1.0;"/><text fill="#000000" font-family="sans-serif" font-size="14" lengthAdjust="spacing" textLength="160" x="181.5" y="407.3242">Date getCreationTime()</text><ellipse cx="172.5" cy="420.0215" fill="#84BE84" rx="3" ry="3" style="stroke:#038048;stroke-width:1.0;"/><text fill="#000000" font-family="sans-serif" font-size="14" lengthAdjust="spacing" textLength="186" x="181.5" y="423.8125">Date getModificationTime()</text><rect fill="#F24D5C" height="6" style="stroke:#C82930;stroke-width:1.0;" width="6" x="169.5" y="433.5098"/><text fill="#000000" font-family="sans-serif" font-size="14" lengthAdjust="spacing" textLength="337" x="181.5" y="440.3008">void setModificationTime(Date modificationTime)</text><line style="stroke:#181818;stroke-width:1.0;stroke-dasharray:1.0,2.0;" x1="162.5" x2="286.5" y1="336.0801" y2="336.0801"/><text fill="#000000" font-family="sans-serif" font-size="14" lengthAdjust="spacing" textLength="113" x="286.5" y="340.8711">Getters &amp; setters</text><line style="stroke:#181818;stroke-width:1.0;stroke-dasharray:1.0,2.0;" x1="399.5" x2="523.5" y1="336.0801" y2="336.0801"/><ellipse cx="172.5" cy="473.4863" fill="#84BE84" rx="3" ry="3" style="stroke:#038048;stroke-width:1.0;"/><text fill="#000000" font-family="sans-serif" font-size="14" lengthAdjust="spacing" text-decoration="underline" textLength="273" x="181.5" y="477.2773">boolean isValidCreationTime(Date date)</text><ellipse cx="172.5" cy="489.9746" fill="#84BE84" rx="3" ry="3" style="stroke:#038048;stroke-width:1.0;"/><text fill="#000000" font-family="sans-serif" font-size="14" lengthAdjust="spacing" textLength="237" x="181.5" y="493.7656">boolean isValidName(String name)</text><ellipse cx="172.5" cy="506.4629" fill="#84BE84" rx="3" ry="3" style="stroke:#038048;stroke-width:1.0;"/><text fill="#000000" font-family="sans-serif" font-size="14" lengthAdjust="spacing" textLength="328" x="181.5" y="510.2539">boolean canHaveAsModificationTime(Date date)</text><ellipse cx="172.5" cy="522.9512" fill="#84BE84" rx="3" ry="3" style="stroke:#038048;stroke-width:1.0;"/><text fill="#000000" font-family="sans-serif" font-size="14" lengthAdjust="spacing" textLength="335" x="181.5" y="526.7422">boolean canHaveAsParentDirectory(Directory dir)</text><ellipse cx="172.5" cy="539.4395" fill="#84BE84" rx="3" ry="3" style="stroke:#038048;stroke-width:1.0;"/><text fill="#000000" font-family="sans-serif" font-size="14" lengthAdjust="spacing" textLength="246" x="181.5" y="543.2305">boolean hasProperParentDirectory()</text><line style="stroke:#181818;stroke-width:1.0;stroke-dasharray:1.0,2.0;" x1="162.5" x2="311.5" y1="455.498" y2="455.498"/><text fill="#000000" font-family="sans-serif" font-size="14" lengthAdjust="spacing" textLength="63" x="311.5" y="460.2891">Checkers</text><line style="stroke:#181818;stroke-width:1.0;stroke-dasharray:1.0,2.0;" x1="374.5" x2="523.5" y1="455.498" y2="455.498"/></g><!--class File--><g id="elem_File"><rect codeLine="36" fill="#F1F1F1" height="496.6953" id="File" rx="2.5" ry="2.5" style="stroke:#181818;stroke-width:0.5;" width="531" x="22.5" y="949.55"/><ellipse cx="271.75" cy="965.55" fill="#ADD1B2" rx="11" ry="11" style="stroke:#181818;stroke-width:1.0;"/><path d="M274.7231,971.1931 Q274.1421,971.4919 273.5029,971.6413 Q272.8638,971.7907 272.1582,971.7907 Q269.6514,971.7907 268.3315,970.1389 Q267.0117,968.487 267.0117,965.3659 Q267.0117,962.2365 268.3315,960.5847 Q269.6514,958.9328 272.1582,958.9328 Q272.8638,958.9328 273.5112,959.0822 Q274.1587,959.2316 274.7231,959.5305 L274.7231,962.2531 Q274.0923,961.6721 273.4988,961.4023 Q272.9053,961.1325 272.2744,961.1325 Q270.9297,961.1325 270.2449,962.1992 Q269.5601,963.2658 269.5601,965.3659 Q269.5601,967.4577 270.2449,968.5244 Q270.9297,969.591 272.2744,969.591 Q272.9053,969.591 273.4988,969.3212 Q274.0923,969.0515 274.7231,968.4704 Z " fill="#000000"/><text fill="#000000" font-family="sans-serif" font-size="14" lengthAdjust="spacing" textLength="24" x="292.25" y="970.841">File</text><line style="stroke:#181818;stroke-width:0.5;" x1="23.5" x2="552.5" y1="981.55" y2="981.55"/><rect fill="none" height="6" style="stroke:#C82930;stroke-width:1.0;" width="6" x="30.5" y="992.2941"/><text fill="#000000" font-family="sans-serif" font-size="14" lengthAdjust="spacing" textLength="49" x="42.5" y="999.0852">int size</text><rect fill="none" height="6" style="stroke:#C82930;stroke-width:1.0;" width="6" x="30.5" y="1008.7824"/><text fill="#000000" font-family="sans-serif" font-size="14" lengthAdjust="spacing" text-decoration="underline" textLength="119" x="42.5" y="1015.5734">int maximumSize</text><rect fill="none" height="6" style="stroke:#C82930;stroke-width:1.0;" width="6" x="30.5" y="1025.2707"/><text fill="#000000" font-family="sans-serif" font-size="14" lengthAdjust="spacing" textLength="120" x="42.5" y="1032.0617">final Filetype type</text><rect fill="none" height="6" style="stroke:#C82930;stroke-width:1.0;" width="6" x="30.5" y="1041.759"/><text fill="#000000" font-family="sans-serif" font-size="14" lengthAdjust="spacing" textLength="123" x="42.5" y="1048.55">boolean writeable</text><line style="stroke:#181818;stroke-width:0.5;" x1="23.5" x2="552.5" y1="1055.5031" y2="1055.5031"/><ellipse cx="33.5" cy="1069.2473" fill="#84BE84" rx="3" ry="3" style="stroke:#038048;stroke-width:1.0;"/><text fill="#000000" font-family="sans-serif" font-size="14" lengthAdjust="spacing" textLength="505" x="42.5" y="1073.0383">File(Directory dir, String name, float size, boolean writeable, Filetype type)</text><ellipse cx="33.5" cy="1085.7355" fill="#84BE84" rx="3" ry="3" style="stroke:#038048;stroke-width:1.0;"/><text fill="#000000" font-family="sans-serif" font-size="14" lengthAdjust="spacing" textLength="304" x="42.5" y="1089.5266">File(Directory dir, String name, Filetype type)</text><line style="stroke:#181818;stroke-width:1.0;stroke-dasharray:1.0,2.0;" x1="23.5" x2="552.5" y1="1096.4797" y2="1096.4797"/><ellipse cx="33.5" cy="1110.2238" fill="#84BE84" rx="3" ry="3" style="stroke:#038048;stroke-width:1.0;"/><text fill="#000000" font-family="sans-serif" font-size="14" lengthAdjust="spacing" textLength="151" x="42.5" y="1114.0148">void enlarge(int delta)</text><ellipse cx="33.5" cy="1126.7121" fill="#84BE84" rx="3" ry="3" style="stroke:#038048;stroke-width:1.0;"/><text fill="#000000" font-family="sans-serif" font-size="14" lengthAdjust="spacing" textLength="152" x="42.5" y="1130.5031">void shorten(int delta)</text><rect fill="#F24D5C" height="6" style="stroke:#C82930;stroke-width:1.0;" width="6" x="30.5" y="1140.2004"/><text fill="#000000" font-family="sans-serif" font-size="14" lengthAdjust="spacing" textLength="177" x="42.5" y="1146.9914">void changeSize(int delta)</text><ellipse cx="33.5" cy="1180.177" fill="#84BE84" rx="3" ry="3" style="stroke:#038048;stroke-width:1.0;"/><text fill="#000000" font-family="sans-serif" font-size="14" lengthAdjust="spacing" textLength="82" x="42.5" y="1183.968">int getSize()</text><rect fill="#F24D5C" height="6" style="stroke:#C82930;stroke-width:1.0;" width="6" x="30.5" y="1193.6652"/><text fill="#000000" font-family="sans-serif" font-size="14" lengthAdjust="spacing" textLength="140" x="42.5" y="1200.4563">void setSize(int size)</text><ellipse cx="33.5" cy="1213.1535" fill="#84BE84" rx="3" ry="3" style="stroke:#038048;stroke-width:1.0;"/><text fill="#000000" font-family="sans-serif" font-size="14" lengthAdjust="spacing" textLength="150" x="42.5" y="1216.9445">int getMaximumSize()</text><ellipse cx="33.5" cy="1229.6418" fill="#84BE84" rx="3" ry="3" style="stroke:#038048;stroke-width:1.0;"/><text fill="#000000" font-family="sans-serif" font-size="14" lengthAdjust="spacing" textLength="142" x="42.5" y="1233.4328">Filetype getFiletype()</text><ellipse cx="33.5" cy="1246.1301" fill="#84BE84" rx="3" ry="3" style="stroke:#038048;stroke-width:1.0;"/><text fill="#000000" font-family="sans-serif" font-size="14" lengthAdjust="spacing" textLength="110" x="42.5" y="1249.9211">Sting getName()</text><rect fill="#F24D5C" height="6" style="stroke:#C82930;stroke-width:1.0;" width="6" x="30.5" y="1259.6184"/><text fill="#000000" font-family="sans-serif" font-size="14" lengthAdjust="spacing" textLength="185" x="42.5" y="1266.4094">void setName(String name)</text><ellipse cx="33.5" cy="1279.1066" fill="#84BE84" rx="3" ry="3" style="stroke:#038048;stroke-width:1.0;"/><text fill="#000000" font-family="sans-serif" font-size="14" lengthAdjust="spacing" textLength="127" x="42.5" y="1282.8977">void setWriteable()</text><ellipse cx="33.5" cy="1295.5949" fill="#84BE84" rx="3" ry="3" style="stroke:#038048;stroke-width:1.0;"/><text fill="#000000" font-family="sans-serif" font-size="14" lengthAdjust="spacing" textLength="145" x="42.5" y="1299.3859">boolean isWriteable()</text><line style="stroke:#181818;stroke-width:1.0;stroke-dasharray:1.0,2.0;" x1="23.5" x2="231.5" y1="1162.1887" y2="1162.1887"/><text fill="#000000" font-family="sans-serif" font-size="14" lengthAdjust="spacing" textLength="113" x="231.5" y="1166.9797">Getters &amp; setters</text><line style="stroke:#181818;stroke-width:1.0;stroke-dasharray:1.0,2.0;" x1="344.5" x2="552.5" y1="1162.1887" y2="1162.1887"/><ellipse cx="33.5" cy="1332.5715" fill="#84BE84" rx="3" ry="3" style="stroke:#038048;stroke-width:1.0;"/><text fill="#000000" font-family="sans-serif" font-size="14" lengthAdjust="spacing" text-decoration="underline" textLength="192" x="42.5" y="1336.3625">boolean isValidSize(int size)</text><ellipse cx="33.5" cy="1349.0598" fill="#84BE84" rx="3" ry="3" style="stroke:#038048;stroke-width:1.0;"/><text fill="#000000" font-family="sans-serif" font-size="14" lengthAdjust="spacing" text-decoration="underline" textLength="283" x="42.5" y="1352.8508">boolean canHaveAsFiletype(Filetype type)</text><line style="stroke:#181818;stroke-width:1.0;stroke-dasharray:1.0,2.0;" x1="23.5" x2="256.5" y1="1314.5832" y2="1314.5832"/><text fill="#000000" font-family="sans-serif" font-size="14" lengthAdjust="spacing" textLength="63" x="256.5" y="1319.3742">Checkers</text><line style="stroke:#181818;stroke-width:1.0;stroke-dasharray:1.0,2.0;" x1="319.5" x2="552.5" y1="1314.5832" y2="1314.5832"/><ellipse cx="33.5" cy="1386.0363" fill="#84BE84" rx="3" ry="3" style="stroke:#038048;stroke-width:1.0;"/><text fill="#000000" font-family="sans-serif" font-size="14" lengthAdjust="spacing" textLength="145" x="42.5" y="1389.8273">boolean isDeletable()</text><ellipse cx="33.5" cy="1402.5246" fill="#84BE84" rx="3" ry="3" style="stroke:#038048;stroke-width:1.0;"/><text fill="#000000" font-family="sans-serif" font-size="14" lengthAdjust="spacing" textLength="170" x="42.5" y="1406.3156">void delete() (destructor)</text><ellipse cx="33.5" cy="1419.0129" fill="#84BE84" rx="3" ry="3" style="stroke:#038048;stroke-width:1.0;"/><text fill="#000000" font-family="sans-serif" font-size="14" lengthAdjust="spacing" textLength="160" x="42.5" y="1422.8039">int getTotalDiskUsage()</text><ellipse cx="33.5" cy="1435.5012" fill="#84BE84" rx="3" ry="3" style="stroke:#038048;stroke-width:1.0;"/><text fill="#000000" font-family="sans-serif" font-size="14" lengthAdjust="spacing" textLength="188" x="42.5" y="1439.2922">boolean canHaveAsParent()</text><line style="stroke:#181818;stroke-width:1.0;stroke-dasharray:1.0,2.0;" x1="23.5" x2="255" y1="1368.048" y2="1368.048"/><text fill="#000000" font-family="sans-serif" font-size="14" lengthAdjust="spacing" textLength="66" x="255" y="1372.8391">Overrides</text><line style="stroke:#181818;stroke-width:1.0;stroke-dasharray:1.0,2.0;" x1="321" x2="552.5" y1="1368.048" y2="1368.048"/></g><!--class Filetype--><g id="elem_Filetype"><rect codeLine="67" fill="#F1F1F1" height="97.4648" id="Filetype" rx="2.5" ry="2.5" style="stroke:#181818;stroke-width:0.5;" width="92" x="95" y="1745.6"/><ellipse cx="113.15" cy="1761.6" fill="#EB937F" rx="11" ry="11" style="stroke:#181818;stroke-width:1.0;"/><path d="M117.2643,1767.6 L109.5445,1767.6 L109.5445,1755.2069 L117.2643,1755.2069 L117.2643,1757.3651 L111.9933,1757.3651 L111.9933,1760.038 L116.7662,1760.038 L116.7662,1762.1962 L111.9933,1762.1962 L111.9933,1765.4418 L117.2643,1765.4418 Z " fill="#000000"/><text fill="#000000" font-family="sans-serif" font-size="14" lengthAdjust="spacing" textLength="53" x="127.85" y="1766.891">Filetype</text><line style="stroke:#181818;stroke-width:0.5;" x1="96" x2="186" y1="1777.6" y2="1777.6"/><line style="stroke:#181818;stroke-width:0.5;" x1="96" x2="186" y1="1785.6" y2="1785.6"/><text fill="#000000" font-family="sans-serif" font-size="14" lengthAdjust="spacing" textLength="78" x="101" y="1803.1352">TEXT("txt"),</text><text fill="#000000" font-family="sans-serif" font-size="14" lengthAdjust="spacing" textLength="73" x="101" y="1819.6234">PDF("pdf"),</text><text fill="#000000" font-family="sans-serif" font-size="14" lengthAdjust="spacing" textLength="80" x="101" y="1836.1117">JAVA("java")</text></g><!--class Directory--><g id="elem_Directory"><rect codeLine="73" fill="#F1F1F1" height="542.1602" id="Directory" rx="2.5" ry="2.5" style="stroke:#181818;stroke-width:0.5;" width="405" x="222.5" y="1523.25"/><ellipse cx="389.75" cy="1539.25" fill="#ADD1B2" rx="11" ry="11" style="stroke:#181818;stroke-width:1.0;"/><path d="M392.7231,1544.8931 Q392.1421,1545.1919 391.5029,1545.3413 Q390.8638,1545.4907 390.1582,1545.4907 Q387.6514,1545.4907 386.3315,1543.8389 Q385.0117,1542.187 385.0117,1539.0659 Q385.0117,1535.9365 386.3315,1534.2847 Q387.6514,1532.6328 390.1582,1532.6328 Q390.8638,1532.6328 391.5112,1532.7822 Q392.1587,1532.9316 392.7231,1533.2305 L392.7231,1535.9531 Q392.0923,1535.3721 391.4988,1535.1023 Q390.9053,1534.8325 390.2744,1534.8325 Q388.9297,1534.8325 388.2449,1535.8992 Q387.5601,1536.9658 387.5601,1539.0659 Q387.5601,1541.1577 388.2449,1542.2244 Q388.9297,1543.291 390.2744,1543.291 Q390.9053,1543.291 391.4988,1543.0212 Q392.0923,1542.7515 392.7231,1542.1704 Z " fill="#000000"/><text fill="#000000" font-family="sans-serif" font-size="14" lengthAdjust="spacing" textLength="62" x="410.25" y="1544.541">Directory</text><line style="stroke:#181818;stroke-width:0.5;" x1="223.5" x2="626.5" y1="1555.25" y2="1555.25"/><rect fill="none" height="6" style="stroke:#C82930;stroke-width:1.0;" width="6" x="230.5" y="1565.9941"/><text fill="#000000" font-family="sans-serif" font-size="14" lengthAdjust="spacing" textLength="153" x="242.5" y="1572.7852">ArrayList&lt;Item&gt; items</text><rect fill="none" height="6" style="stroke:#C82930;stroke-width:1.0;" width="6" x="230.5" y="1582.4824"/><text fill="#000000" font-family="sans-serif" font-size="14" lengthAdjust="spacing" textLength="123" x="242.5" y="1589.2734">boolean writeable</text><line style="stroke:#181818;stroke-width:0.5;" x1="223.5" x2="626.5" y1="1596.2266" y2="1596.2266"/><ellipse cx="233.5" cy="1609.9707" fill="#84BE84" rx="3" ry="3" style="stroke:#038048;stroke-width:1.0;"/><text fill="#000000" font-family="sans-serif" font-size="14" lengthAdjust="spacing" textLength="379" x="242.5" y="1613.7617">Directory(Directory dir, String name, boolean writeable)</text><ellipse cx="233.5" cy="1626.459" fill="#84BE84" rx="3" ry="3" style="stroke:#038048;stroke-width:1.0;"/><text fill="#000000" font-family="sans-serif" font-size="14" lengthAdjust="spacing" textLength="248" x="242.5" y="1630.25">Directory(Directory dir, String name)</text><ellipse cx="233.5" cy="1642.9473" fill="#84BE84" rx="3" ry="3" style="stroke:#038048;stroke-width:1.0;"/><text fill="#000000" font-family="sans-serif" font-size="14" lengthAdjust="spacing" textLength="278" x="242.5" y="1646.7383">Directory(String name, boolean writable)</text><ellipse cx="233.5" cy="1659.4355" fill="#84BE84" rx="3" ry="3" style="stroke:#038048;stroke-width:1.0;"/><text fill="#000000" font-family="sans-serif" font-size="14" lengthAdjust="spacing" textLength="155" x="242.5" y="1663.2266">Directory(String name)</text><line style="stroke:#181818;stroke-width:0.5;" x1="223.5" x2="626.5" y1="1670.1797" y2="1670.1797"/><ellipse cx="233.5" cy="1683.9238" fill="#84BE84" rx="3" ry="3" style="stroke:#038048;stroke-width:1.0;"/><text fill="#000000" font-family="sans-serif" font-size="14" lengthAdjust="spacing" textLength="163" x="242.5" y="1687.7148">void addItem(Item item)</text><ellipse cx="233.5" cy="1700.4121" fill="#84BE84" rx="3" ry="3" style="stroke:#038048;stroke-width:1.0;"/><text fill="#000000" font-family="sans-serif" font-size="14" lengthAdjust="spacing" textLength="110" x="242.5" y="1704.2031">int getNbItems()</text><ellipse cx="233.5" cy="1716.9004" fill="#84BE84" rx="3" ry="3" style="stroke:#038048;stroke-width:1.0;"/><text fill="#000000" font-family="sans-serif" font-size="14" lengthAdjust="spacing" textLength="172" x="242.5" y="1720.6914">Item getItemAt(int index)</text><ellipse cx="233.5" cy="1733.3887" fill="#84BE84" rx="3" ry="3" style="stroke:#038048;stroke-width:1.0;"/><text fill="#000000" font-family="sans-serif" font-size="14" lengthAdjust="spacing" textLength="179" x="242.5" y="1737.1797">Item getItem(String name)</text><ellipse cx="233.5" cy="1749.877" fill="#84BE84" rx="3" ry="3" style="stroke:#038048;stroke-width:1.0;"/><text fill="#000000" font-family="sans-serif" font-size="14" lengthAdjust="spacing" textLength="339" x="242.5" y="1753.668">boolean containsDiskItemWithName(String name)</text><ellipse cx="233.5" cy="1766.3652" fill="#84BE84" rx="3" ry="3" style="stroke:#038048;stroke-width:1.0;"/><text fill="#000000" font-family="sans-serif" font-size="14" lengthAdjust="spacing" textLength="173" x="242.5" y="1770.1563">int getIndexOf(Item item)</text><ellipse cx="233.5" cy="1782.8535" fill="#84BE84" rx="3" ry="3" style="stroke:#038048;stroke-width:1.0;"/><text fill="#000000" font-family="sans-serif" font-size="14" lengthAdjust="spacing" textLength="205" x="242.5" y="1786.6445">boolean hasAsItem(Item item)</text><ellipse cx="233.5" cy="1799.3418" fill="#84BE84" rx="3" ry="3" style="stroke:#038048;stroke-width:1.0;"/><text fill="#000000" font-family="sans-serif" font-size="14" lengthAdjust="spacing" textLength="112" x="242.5" y="1803.1328">void makeRoot()</text><rect fill="#F24D5C" height="6" style="stroke:#C82930;stroke-width:1.0;" width="6" x="230.5" y="1812.8301"/><text fill="#000000" font-family="sans-serif" font-size="14" lengthAdjust="spacing" textLength="210" x="242.5" y="1819.6211">int getIndexForItem(Item item)</text><rect fill="#F24D5C" height="6" style="stroke:#C82930;stroke-width:1.0;" width="6" x="230.5" y="1829.3184"/><text fill="#000000" font-family="sans-serif" font-size="14" lengthAdjust="spacing" textLength="227" x="242.5" y="1836.1094">void insertItemAtIndex(int index)</text><ellipse cx="233.5" cy="1848.8066" fill="#84BE84" rx="3" ry="3" style="stroke:#038048;stroke-width:1.0;"/><text fill="#000000" font-family="sans-serif" font-size="14" lengthAdjust="spacing" textLength="127" x="242.5" y="1852.5977">void setWriteable()</text><ellipse cx="233.5" cy="1865.2949" fill="#84BE84" rx="3" ry="3" style="stroke:#038048;stroke-width:1.0;"/><text fill="#000000" font-family="sans-serif" font-size="14" lengthAdjust="spacing" textLength="145" x="242.5" y="1869.0859">boolean isWriteable()</text><ellipse cx="233.5" cy="1881.7832" fill="#84BE84" rx="3" ry="3" style="stroke:#038048;stroke-width:1.0;"/><text fill="#000000" font-family="sans-serif" font-size="14" lengthAdjust="spacing" textLength="150" x="242.5" y="1885.5742">void deleteRecursive()</text><ellipse cx="233.5" cy="1918.7598" fill="#84BE84" rx="3" ry="3" style="stroke:#038048;stroke-width:1.0;"/><text fill="#000000" font-family="sans-serif" font-size="14" lengthAdjust="spacing" text-decoration="underline" textLength="209" x="242.5" y="1922.5508">boolean isValidItem(Item item)</text><ellipse cx="233.5" cy="1935.248" fill="#84BE84" rx="3" ry="3" style="stroke:#038048;stroke-width:1.0;"/><text fill="#000000" font-family="sans-serif" font-size="14" lengthAdjust="spacing" textLength="177" x="242.5" y="1939.0391">boolean hasProperItems()</text><ellipse cx="233.5" cy="1951.7363" fill="none" rx="3" ry="3" style="stroke:#038048;stroke-width:1.0;"/><text fill="#000000" font-family="sans-serif" font-size="14" lengthAdjust="spacing" textLength="211" x="242.5" y="1955.5273">boolean isRecursivelyDeletable</text><line style="stroke:#181818;stroke-width:1.0;stroke-dasharray:1.0,2.0;" x1="223.5" x2="393.5" y1="1900.7715" y2="1900.7715"/><text fill="#000000" font-family="sans-serif" font-size="14" lengthAdjust="spacing" textLength="63" x="393.5" y="1905.5625">Checkers</text><line style="stroke:#181818;stroke-width:1.0;stroke-dasharray:1.0,2.0;" x1="456.5" x2="626.5" y1="1900.7715" y2="1900.7715"/><ellipse cx="233.5" cy="1988.7129" fill="#84BE84" rx="3" ry="3" style="stroke:#038048;stroke-width:1.0;"/><text fill="#000000" font-family="sans-serif" font-size="14" lengthAdjust="spacing" textLength="237" x="242.5" y="1992.5039">boolean isValidName(String name)</text><ellipse cx="233.5" cy="2005.2012" fill="#84BE84" rx="3" ry="3" style="stroke:#038048;stroke-width:1.0;"/><text fill="#000000" font-family="sans-serif" font-size="14" lengthAdjust="spacing" textLength="145" x="242.5" y="2008.9922">boolean isDeletable()</text><ellipse cx="233.5" cy="2021.6895" fill="#84BE84" rx="3" ry="3" style="stroke:#038048;stroke-width:1.0;"/><text fill="#000000" font-family="sans-serif" font-size="14" lengthAdjust="spacing" textLength="170" x="242.5" y="2025.4805">void delete() (destructor)</text><ellipse cx="233.5" cy="2038.1777" fill="#84BE84" rx="3" ry="3" style="stroke:#038048;stroke-width:1.0;"/><text fill="#000000" font-family="sans-serif" font-size="14" lengthAdjust="spacing" textLength="160" x="242.5" y="2041.9688">int getTotalDiskUsage()</text><ellipse cx="233.5" cy="2054.666" fill="#84BE84" rx="3" ry="3" style="stroke:#038048;stroke-width:1.0;"/><text fill="#000000" font-family="sans-serif" font-size="14" lengthAdjust="spacing" textLength="188" x="242.5" y="2058.457">boolean canHaveAsParent()</text><line style="stroke:#181818;stroke-width:1.0;stroke-dasharray:1.0,2.0;" x1="223.5" x2="392" y1="1970.7246" y2="1970.7246"/><text fill="#000000" font-family="sans-serif" font-size="14" lengthAdjust="spacing" textLength="66" x="392" y="1975.5156">Overrides</text><line style="stroke:#181818;stroke-width:1.0;stroke-dasharray:1.0,2.0;" x1="458" x2="626.5" y1="1970.7246" y2="1970.7246"/></g><!--class Link--><g id="elem_Link"><rect codeLine="107" fill="#F1F1F1" height="245.3711" id="Link" rx="2.5" ry="2.5" style="stroke:#181818;stroke-width:0.5;" width="334" x="176" y="627.18"/><ellipse cx="324.75" cy="643.18" fill="#ADD1B2" rx="11" ry="11" style="stroke:#181818;stroke-width:1.0;"/><path d="M327.7231,648.8231 Q327.1421,649.1219 326.5029,649.2713 Q325.8638,649.4207 325.1582,649.4207 Q322.6514,649.4207 321.3315,647.7689 Q320.0117,646.117 320.0117,642.9959 Q320.0117,639.8665 321.3315,638.2147 Q322.6514,636.5628 325.1582,636.5628 Q325.8638,636.5628 326.5112,636.7122 Q327.1587,636.8616 327.7231,637.1605 L327.7231,639.8831 Q327.0923,639.3021 326.4988,639.0323 Q325.9053,638.7625 325.2744,638.7625 Q323.9297,638.7625 323.2449,639.8292 Q322.5601,640.8958 322.5601,642.9959 Q322.5601,645.0877 323.2449,646.1544 Q323.9297,647.221 325.2744,647.221 Q325.9053,647.221 326.4988,646.9512 Q327.0923,646.6815 327.7231,646.1004 Z " fill="#000000"/><text fill="#000000" font-family="sans-serif" font-size="14" lengthAdjust="spacing" textLength="28" x="345.25" y="648.471">Link</text><line style="stroke:#181818;stroke-width:0.5;" x1="177" x2="509" y1="659.18" y2="659.18"/><rect fill="#F24D5C" height="6" style="stroke:#C82930;stroke-width:1.0;" width="6" x="184" y="669.9241"/><text fill="#000000" font-family="sans-serif" font-size="14" lengthAdjust="spacing" textLength="230" x="196" y="676.7152">Item linkedItem (not another link)</text><line style="stroke:#181818;stroke-width:0.5;" x1="177" x2="509" y1="683.6683" y2="683.6683"/><ellipse cx="187" cy="697.4124" fill="#84BE84" rx="3" ry="3" style="stroke:#038048;stroke-width:1.0;"/><text fill="#000000" font-family="sans-serif" font-size="14" lengthAdjust="spacing" textLength="308" x="196" y="701.2034">Link(Directory dir, String name, Filetype type)</text><line style="stroke:#181818;stroke-width:1.0;stroke-dasharray:1.0,2.0;" x1="177" x2="509" y1="708.1566" y2="708.1566"/><rect fill="#F24D5C" height="6" style="stroke:#C82930;stroke-width:1.0;" width="6" x="184" y="718.9007"/><text fill="#000000" font-family="sans-serif" font-size="14" lengthAdjust="spacing" textLength="196" x="196" y="725.6917">void changeLinkTo(Link link)</text><ellipse cx="187" cy="738.389" fill="#84BE84" rx="3" ry="3" style="stroke:#038048;stroke-width:1.0;"/><text fill="#000000" font-family="sans-serif" font-size="14" lengthAdjust="spacing" textLength="86" x="196" y="742.18">void unlink()</text><ellipse cx="187" cy="775.3655" fill="#84BE84" rx="3" ry="3" style="stroke:#038048;stroke-width:1.0;"/><text fill="#000000" font-family="sans-serif" font-size="14" lengthAdjust="spacing" text-decoration="underline" textLength="254" x="196" y="779.1566">boolean isValidLinkedItem(Item item)</text><ellipse cx="187" cy="791.8538" fill="#84BE84" rx="3" ry="3" style="stroke:#038048;stroke-width:1.0;"/><text fill="#000000" font-family="sans-serif" font-size="14" lengthAdjust="spacing" textLength="215" x="196" y="795.6448">boolean hasProperLinkedItem()</text><line style="stroke:#181818;stroke-width:1.0;stroke-dasharray:1.0,2.0;" x1="177" x2="311.5" y1="757.3773" y2="757.3773"/><text fill="#000000" font-family="sans-serif" font-size="14" lengthAdjust="spacing" textLength="63" x="311.5" y="762.1683">Checkers</text><line style="stroke:#181818;stroke-width:1.0;stroke-dasharray:1.0,2.0;" x1="374.5" x2="509" y1="757.3773" y2="757.3773"/><ellipse cx="187" cy="828.8304" fill="#84BE84" rx="3" ry="3" style="stroke:#038048;stroke-width:1.0;"/><text fill="#000000" font-family="sans-serif" font-size="14" lengthAdjust="spacing" textLength="170" x="196" y="832.6214">void delete() (destructor)</text><ellipse cx="187" cy="845.3187" fill="#84BE84" rx="3" ry="3" style="stroke:#038048;stroke-width:1.0;"/><text fill="#000000" font-family="sans-serif" font-size="14" lengthAdjust="spacing" textLength="160" x="196" y="849.1097">int getTotalDiskUsage()</text><ellipse cx="187" cy="861.807" fill="#84BE84" rx="3" ry="3" style="stroke:#038048;stroke-width:1.0;"/><text fill="#000000" font-family="sans-serif" font-size="14" lengthAdjust="spacing" textLength="188" x="196" y="865.598">boolean canHaveAsParent()</text><line style="stroke:#181818;stroke-width:1.0;stroke-dasharray:1.0,2.0;" x1="177" x2="310" y1="810.8421" y2="810.8421"/><text fill="#000000" font-family="sans-serif" font-size="14" lengthAdjust="spacing" textLength="66" x="310" y="815.6331">Overrides</text><line style="stroke:#181818;stroke-width:1.0;stroke-dasharray:1.0,2.0;" x1="376" x2="509" y1="810.8421" y2="810.8421"/></g><!--reverse link Item to Link--><g id="link_Item_Link"><path codeLine="123" d="M343,568.49 C343,594.97 343,602.94 343,626.9 " fill="none" id="Item-backto-Link" style="stroke:#181818;stroke-width:1.0;"/><polygon fill="none" points="343,550.49,337,568.49,349,568.49,343,550.49" style="stroke:#181818;stroke-width:1.0;"/><text fill="#000000" font-family="sans-serif" font-size="13" lengthAdjust="spacing" textLength="82" x="344" y="593.7484">inherits from</text></g><!--reverse link Item to File--><g id="link_Item_File"><path codeLine="124" d="M149.9879,490.0196 C114.3779,535.7296 93.21,573.15 74,627.18 C37.48,729.94 42.65,768.1 74,872.55 C81.81,898.56 92.45,924.41 104.84,949.5 " fill="none" id="Item-backto-File" style="stroke:#181818;stroke-width:1.0;"/><polygon fill="none" points="161.05,475.82,145.2547,486.3323,154.7211,493.707,161.05,475.82" style="stroke:#181818;stroke-width:1.0;"/><text fill="#000000" font-family="sans-serif" font-size="13" lengthAdjust="spacing" textLength="82" x="75" y="754.9384">inherits from</text></g><!--reverse link Item to Directory--><g id="link_Item_Directory"><path codeLine="125" d="M502.8704,566.7816 C515.0504,592.1916 518.5,601.77 528,627.18 C579.22,764.27 580.03,803.98 595,949.55 C617.58,1169.15 644.84,1231.2 595,1446.25 C589.09,1471.74 581.04,1497.52 571.63,1522.91 " fill="none" id="Item-backto-Directory" style="stroke:#181818;stroke-width:1.0;"/><polygon fill="none" points="495.09,550.55,497.4599,569.3751,508.281,564.1881,495.09,550.55" style="stroke:#181818;stroke-width:1.0;"/><text fill="#000000" font-family="sans-serif" font-size="13" lengthAdjust="spacing" textLength="82" x="592" y="916.1184">inherits from</text></g><!--link File to Filetype--><g id="link_File_Filetype"><path codeLine="127" d="M224.1,1446.71 C217.59,1472.54 211.12,1498.42 205,1523.25 C185.86,1600.92 164.63,1691.42 152.07,1745.46 " fill="none" id="File-Filetype" style="stroke:#181818;stroke-width:1.0;stroke-dasharray:7.0,7.0;"/><text fill="#000000" font-family="sans-serif" font-size="13" lengthAdjust="spacing" textLength="29" x="216" y="1489.8184">uses</text></g><!--link Link to File--><g id="link_Link_File"><path codeLine="129" d="M327.93,873.04 C324.98,897.03 322.5148,917.0352 319.2548,943.4552 " fill="none" id="Link-to-File" style="stroke:#181818;stroke-width:1.0;"/><polygon fill="#181818" points="318.52,949.41,323.5921,940.9676,319.1323,944.4476,315.6523,939.9879,318.52,949.41" style="stroke:#181818;stroke-width:1.0;"/><text fill="#000000" font-family="sans-serif" font-size="13" lengthAdjust="spacing" textLength="65" x="324" y="916.1184">references</text></g><!--link Link to Directory--><g id="link_Link_Directory"><path codeLine="130" d="M451.74,872.71 C469.63,889.53 488.67,905.74 508,919.55 C533.23,937.58 554.44,923.33 571,949.55 C629.93,1042.88 592.83,1338.05 571,1446.25 C565.89,1471.56 558.89,1497.33 550.69,1522.8 " fill="none" id="Link-Directory" style="stroke:#181818;stroke-width:1.0;"/><text fill="#000000" font-family="sans-serif" font-size="13" lengthAdjust="spacing" textLength="6" x="452.1835" y="893.2307">*</text><text fill="#000000" font-family="sans-serif" font-size="13" lengthAdjust="spacing" textLength="8" x="546.3027" y="1512.0893">1</text></g><!--link File to Directory--><g id="link_File_Directory"><path codeLine="131" d="M345.11,1446.69 C350.91,1471.86 356.82,1497.51 362.67,1522.9 " fill="none" id="File-Directory" style="stroke:#181818;stroke-width:1.0;"/><text fill="#000000" font-family="sans-serif" font-size="13" lengthAdjust="spacing" textLength="6" x="340.7164" y="1466.8716">*</text><text fill="#000000" font-family="sans-serif" font-size="13" lengthAdjust="spacing" textLength="8" x="352.7008" y="1512.1922">1</text></g><!--SRC=[lLPRJzim57xFhx3oCAMZGTehGaWL7HiJbmews1joavF6Qs9NjjlHCVxxR2TrdCG5kcdhGvkUo-Tp-uwpnCa2pm5bf02n4H9Az1G4U2Oanub4vvK0gK-CRYKdT8ueBg6MZB44b730aZ0w9MrvoLAIaQId8nmIoVW6BJ47Akt_uE71c1oOKoFdj45mU5YhreoaACandSELqhIjAfCPOmLWYeWOGm4Ipmg81gvxgiLAXg8KL9uhVNhNESVYUWsymCkbmlygL8qcm0bB8rCI9dFWBT2IhI5gSak9LJV2ESWRncJaYTJONFDpcfgdqvmKwNNc1oHKQgWfaxWO4x4mqLdGkYBAO3GJh5X9c62PHxg6dq1Au0AzGw9wicLjd4nL1tMlJ6QY5lPA7QCd8LLxasV7VmmPNXKkp44r3aftwanAJtdP6PTU43q3xvJfF4zpI1PkUZREfk9tk21fAo03bwglVdkCyMlpbc3w6QzX9Fo1-f2jowHD1N_VdTcSSBO4tlKQ1Cz1a1HO27Ic-6o9gmT6a9_GxPgMb_YHbAlojb5dXEB20CZD4f3-gZNR07vm8a7pgg6iDcz7FNJtnH1b1SDL5CC-ph1ztE2je1slzfO0Mc2kYA6pL9INkCLNaJCkWNQriRjXT55SWvSOL9FIk7Gdr-Bez3iilcpg7xbvcxIKVlliy7j_fXvO_Vssv9ubvEhs894tkvwn7NMRKAzvUk5oedQoFVAlLldBQt871IiE0LsLJHSg6aq_Vfj6eNoKuM1e19FnMHGkqspx_yleRXI5t_4QXmuHc_7Tid74ETvS426FzLLoWbJHI_4wmtOiXmuZUW23FTpxjZkn_T0jB1kvwHHEKtEjc-jJfznfqzLCQuJjZx5JSlqxacQ-24tXqQT_SIipAZ6XGa-0jhqdCjz5aZgKStsEkdnxeJeBU2JysLJl0dW1paKVju3F6FUvrXHMaGAlapRc_SptfNAFBZUGhBWWwprvxa-uTocrszXWs5EBZIMpEXvPrYCFxTzqyVxlxL0H-uBGXUMqAKkX963AX2BA9CBKl2OQkKC7xVW7jrhhPj8OKnQP62fu9-qLrQBzcdjXOtz3YnrZ_zx-bzKtuHt_YcDJo2C5fMfCf40PPwMZrLNShRNrxve4vir9pUMs2qTe9K04WQbr79_Km1moK44bIcKquVjGQL7u8MomAoolHcNo6m00]--></g></svg>