<?xml version="1.0" encoding="us-ascii" standalone="no"?><svg xmlns="http://www.w3.org/2000/svg" xmlns:xlink="http://www.w3.org/1999/xlink" contentStyleType="text/css" height="464px" preserveAspectRatio="none" style="width:392px;height:464px;background:#FFFFFF;" version="1.1" viewBox="0 0 392 464" width="392px" zoomAndPan="magnify"><defs/><g><!--class File--><g id="elem_File"><rect codeLine="2" fill="#F1F1F1" height="443.7188" id="File" rx="2.5" ry="2.5" style="stroke:#181818;stroke-width:0.5;" width="371" x="7" y="7"/><ellipse cx="176.25" cy="23" fill="#ADD1B2" rx="11" ry="11" style="stroke:#181818;stroke-width:1.0;"/><path d="M179.2231,28.6431 Q178.6421,28.9419 178.0029,29.0913 Q177.3638,29.2407 176.6582,29.2407 Q174.1514,29.2407 172.8315,27.5889 Q171.5117,25.937 171.5117,22.8159 Q171.5117,19.6865 172.8315,18.0347 Q174.1514,16.3828 176.6582,16.3828 Q177.3638,16.3828 178.0112,16.5322 Q178.6587,16.6816 179.2231,16.9805 L179.2231,19.7031 Q178.5923,19.1221 177.9988,18.8523 Q177.4053,18.5825 176.7744,18.5825 Q175.4297,18.5825 174.7449,19.6492 Q174.0601,20.7158 174.0601,22.8159 Q174.0601,24.9077 174.7449,25.9744 Q175.4297,27.041 176.7744,27.041 Q177.4053,27.041 177.9988,26.7712 Q178.5923,26.5015 179.2231,25.9204 Z " fill="#000000"/><text fill="#000000" font-family="sans-serif" font-size="14" lengthAdjust="spacing" textLength="24" x="196.75" y="28.291">File</text><line style="stroke:#181818;stroke-width:0.5;" x1="8" x2="377" y1="39" y2="39"/><rect fill="none" height="6" style="stroke:#C82930;stroke-width:1.0;" width="6" x="15" y="49.7441"/><text fill="#000000" font-family="sans-serif" font-size="14" lengthAdjust="spacing" textLength="53" x="27" y="56.5352">size: int</text><rect fill="none" height="6" style="stroke:#C82930;stroke-width:1.0;" width="6" x="15" y="66.2324"/><text fill="#000000" font-family="sans-serif" font-size="14" lengthAdjust="spacing" textLength="87" x="27" y="73.0234">name: String</text><rect fill="none" height="6" style="stroke:#C82930;stroke-width:1.0;" width="6" x="15" y="82.7207"/><text fill="#000000" font-family="sans-serif" font-size="14" lengthAdjust="spacing" textLength="129" x="27" y="89.5117">creationTime: Date</text><rect fill="none" height="6" style="stroke:#C82930;stroke-width:1.0;" width="6" x="15" y="99.209"/><text fill="#000000" font-family="sans-serif" font-size="14" lengthAdjust="spacing" textLength="159" x="27" y="106">modificationTime: Date</text><rect fill="none" height="6" style="stroke:#C82930;stroke-width:1.0;" width="6" x="15" y="115.6973"/><text fill="#000000" font-family="sans-serif" font-size="14" lengthAdjust="spacing" textLength="127" x="27" y="122.4883">writeable: boolean</text><line style="stroke:#181818;stroke-width:0.5;" x1="8" x2="377" y1="129.4414" y2="129.4414"/><rect fill="#F24D5C" height="6" style="stroke:#C82930;stroke-width:1.0;" width="6" x="15" y="140.1855"/><text fill="#000000" font-family="sans-serif" font-size="14" lengthAdjust="spacing" textLength="142" x="27" y="146.9766">MAX_SIZE: int (static)</text><ellipse cx="18" cy="159.6738" fill="#84BE84" rx="3" ry="3" style="stroke:#038048;stroke-width:1.0;"/><text fill="#000000" font-family="sans-serif" font-size="14" lengthAdjust="spacing" textLength="317" x="27" y="163.4648">File(name: String, size: int, writeable: boolean)</text><ellipse cx="18" cy="176.1621" fill="#84BE84" rx="3" ry="3" style="stroke:#038048;stroke-width:1.0;"/><text fill="#000000" font-family="sans-serif" font-size="14" lengthAdjust="spacing" textLength="121" x="27" y="179.9531">File(name: String)</text><text fill="#000000" font-family="sans-serif" font-size="14" lengthAdjust="spacing" textLength="4" x="27" y="196.4414">&#160;</text><ellipse cx="18" cy="209.1387" fill="#84BE84" rx="3" ry="3" style="stroke:#038048;stroke-width:1.0;"/><text fill="#000000" font-family="sans-serif" font-size="14" lengthAdjust="spacing" textLength="149" x="27" y="212.9297">isWriteable(): boolean</text><ellipse cx="18" cy="225.627" fill="#84BE84" rx="3" ry="3" style="stroke:#038048;stroke-width:1.0;"/><text fill="#000000" font-family="sans-serif" font-size="14" lengthAdjust="spacing" textLength="229" x="27" y="229.418">canHaveAsSize(size: int): boolean</text><ellipse cx="18" cy="242.1152" fill="#84BE84" rx="3" ry="3" style="stroke:#038048;stroke-width:1.0;"/><text fill="#000000" font-family="sans-serif" font-size="14" lengthAdjust="spacing" textLength="218" x="27" y="245.9063">enlarge(amountOfBits: int): void</text><ellipse cx="18" cy="258.6035" fill="#84BE84" rx="3" ry="3" style="stroke:#038048;stroke-width:1.0;"/><text fill="#000000" font-family="sans-serif" font-size="14" lengthAdjust="spacing" textLength="219" x="27" y="262.3945">shorten(amountOfBits: int): void</text><ellipse cx="18" cy="275.0918" fill="#84BE84" rx="3" ry="3" style="stroke:#038048;stroke-width:1.0;"/><text fill="#000000" font-family="sans-serif" font-size="14" lengthAdjust="spacing" textLength="252" x="27" y="278.8828">changeName(newName: String): void</text><ellipse cx="18" cy="291.5801" fill="#84BE84" rx="3" ry="3" style="stroke:#038048;stroke-width:1.0;"/><text fill="#000000" font-family="sans-serif" font-size="14" lengthAdjust="spacing" textLength="337" x="27" y="295.3711">hasOverlappingUsagePeriod(other: File): boolean</text><text fill="#000000" font-family="sans-serif" font-size="14" lengthAdjust="spacing" textLength="4" x="27" y="311.8594">&#160;</text><ellipse cx="18" cy="324.5566" fill="#84BE84" rx="3" ry="3" style="stroke:#038048;stroke-width:1.0;"/><text fill="#000000" font-family="sans-serif" font-size="14" lengthAdjust="spacing" textLength="86" x="27" y="328.3477">getSize(): int</text><ellipse cx="18" cy="341.0449" fill="#84BE84" rx="3" ry="3" style="stroke:#038048;stroke-width:1.0;"/><text fill="#000000" font-family="sans-serif" font-size="14" lengthAdjust="spacing" textLength="148" x="27" y="344.8359">setSize(size: int): void</text><ellipse cx="18" cy="357.5332" fill="#84BE84" rx="3" ry="3" style="stroke:#038048;stroke-width:1.0;"/><text fill="#000000" font-family="sans-serif" font-size="14" lengthAdjust="spacing" textLength="120" x="27" y="361.3242">getName(): String</text><rect fill="#F24D5C" height="6" style="stroke:#C82930;stroke-width:1.0;" width="6" x="15" y="371.0215"/><text fill="#000000" font-family="sans-serif" font-size="14" lengthAdjust="spacing" textLength="193" x="27" y="377.8125">setName(name: String): void</text><ellipse cx="18" cy="390.5098" fill="#84BE84" rx="3" ry="3" style="stroke:#038048;stroke-width:1.0;"/><text fill="#000000" font-family="sans-serif" font-size="14" lengthAdjust="spacing" textLength="258" x="27" y="394.3008">setWriteable(writeable: boolean): void</text><ellipse cx="18" cy="406.998" fill="#84BE84" rx="3" ry="3" style="stroke:#038048;stroke-width:1.0;"/><text fill="#000000" font-family="sans-serif" font-size="14" lengthAdjust="spacing" textLength="164" x="27" y="410.7891">getCreationTime(): Date</text><ellipse cx="18" cy="423.4863" fill="#84BE84" rx="3" ry="3" style="stroke:#038048;stroke-width:1.0;"/><text fill="#000000" font-family="sans-serif" font-size="14" lengthAdjust="spacing" textLength="190" x="27" y="427.2773">getModificationTime(): Date</text><rect fill="#F24D5C" height="6" style="stroke:#C82930;stroke-width:1.0;" width="6" x="15" y="436.9746"/><text fill="#000000" font-family="sans-serif" font-size="14" lengthAdjust="spacing" textLength="345" x="27" y="443.7656">setModificationTime(modificationTime: Date): void</text></g><!--SRC=[XLBBJiCm4BpdAtoqHVc1tifBS6YB51282zewssGbnwviaqeW_XtNTPeqIOLldfdrp7fNAd2EFP12zfDbB9nhvkWRvuoqJ_VbulqpV_guZnZZpeCdAHAfeGxYt5lIPOAanQ0m-eKEr1ruJ4Hj2jgId2RtbZp2HWLqOun2qCSyLp4Tx_lCkeYpYJfngKwqBv9xQwkuwFoEf0Jz20qkN1vC-Cbff4Ejm9R8eJPVsg-tD-HTgsmC5KdcAcCzwlzaiW9TuYgavHhtgtxgCrq5RjsWLR3R1UxLGOdFQCaKtFWAxJnsBKP_MAAFxOXki25Q0lizzgn2JSmZ1lDr2TSNGmP5zy4J0nhQtFOsvc1tMel8BWThSwQ8SKQAwKrhVRFVx0y0]--></g></svg>