<?xml version="1.0" encoding="us-ascii" standalone="no"?><svg xmlns="http://www.w3.org/2000/svg" xmlns:xlink="http://www.w3.org/1999/xlink" contentStyleType="text/css" height="1351px" preserveAspectRatio="none" style="width:1017px;height:1351px;background:#FFFFFF;" version="1.1" viewBox="0 0 1017 1351" width="1017px" zoomAndPan="magnify"><defs/><g><!--cluster filesystem--><g id="cluster_filesystem"><path d="M8.5,6 L85.5,6 A3.75,3.75 0 0 1 88,8.5 L95,28.4883 L1007.5,28.4883 A2.5,2.5 0 0 1 1010,30.9883 L1010,1341.91 A2.5,2.5 0 0 1 1007.5,1344.41 L8.5,1344.41 A2.5,2.5 0 0 1 6,1341.91 L6,8.5 A2.5,2.5 0 0 1 8.5,6 " fill="none" style="stroke:#000000;stroke-width:1.5;"/><line style="stroke:#000000;stroke-width:1.5;" x1="6" x2="95" y1="28.4883" y2="28.4883"/><text fill="#000000" font-family="sans-serif" font-size="14" font-weight="bold" lengthAdjust="spacing" textLength="76" x="10" y="21.5352">filesystem</text></g><!--class Item--><g id="elem_Item"><rect codeLine="4" fill="#F1F1F1" height="373.2773" id="Item" rx="2.5" ry="2.5" style="stroke:#181818;stroke-width:0.5;" width="368" x="380" y="41"/><ellipse cx="544.75" cy="57" fill="#A9DCDF" rx="11" ry="11" style="stroke:#181818;stroke-width:1.0;"/><path d="M544.8633,52.3481 L543.7095,57.4199 L546.0254,57.4199 Z M543.3691,50.1069 L546.3657,50.1069 L549.7109,62.5 L547.2622,62.5 L546.4985,59.437 L543.2197,59.437 L542.4727,62.5 L540.0239,62.5 Z " fill="#000000"/><text fill="#000000" font-family="sans-serif" font-size="14" font-style="italic" lengthAdjust="spacing" textLength="30" x="565.25" y="62.291">Item</text><line style="stroke:#181818;stroke-width:0.5;" x1="381" x2="747" y1="73" y2="73"/><rect fill="none" height="6" style="stroke:#C82930;stroke-width:1.0;" width="6" x="388" y="83.7441"/><text fill="#000000" font-family="sans-serif" font-size="14" lengthAdjust="spacing" textLength="83" x="400" y="90.5352">String name</text><rect fill="none" height="6" style="stroke:#C82930;stroke-width:1.0;" width="6" x="388" y="100.2324"/><text fill="#000000" font-family="sans-serif" font-size="14" lengthAdjust="spacing" textLength="125" x="400" y="107.0234">Date creationTime</text><rect fill="none" height="6" style="stroke:#C82930;stroke-width:1.0;" width="6" x="388" y="116.7207"/><text fill="#000000" font-family="sans-serif" font-size="14" lengthAdjust="spacing" textLength="155" x="400" y="123.5117">Date modificationTime</text><line style="stroke:#181818;stroke-width:0.5;" x1="381" x2="747" y1="130.4648" y2="130.4648"/><ellipse cx="391" cy="144.209" fill="#84BE84" rx="3" ry="3" style="stroke:#038048;stroke-width:1.0;"/><text fill="#000000" font-family="sans-serif" font-size="14" lengthAdjust="spacing" textLength="123" x="400" y="148">Item(String name)</text><line style="stroke:#181818;stroke-width:1.0;stroke-dasharray:1.0,2.0;" x1="381" x2="747" y1="154.9531" y2="154.9531"/><ellipse cx="391" cy="168.6973" fill="#84BE84" rx="3" ry="3" style="stroke:#038048;stroke-width:1.0;"/><text fill="#000000" font-family="sans-serif" font-size="14" lengthAdjust="spacing" textLength="183" x="400" y="172.4883">boolean canHaveAsName()</text><ellipse cx="391" cy="185.1855" fill="#84BE84" rx="3" ry="3" style="stroke:#038048;stroke-width:1.0;"/><text fill="#000000" font-family="sans-serif" font-size="14" lengthAdjust="spacing" textLength="132" x="400" y="188.9766">void changeName()</text><ellipse cx="391" cy="201.6738" fill="#84BE84" rx="3" ry="3" style="stroke:#038048;stroke-width:1.0;"/><text fill="#000000" font-family="sans-serif" font-size="14" lengthAdjust="spacing" textLength="153" x="400" y="205.4648">boolean isDeleteable()</text><ellipse cx="391" cy="218.1621" fill="#84BE84" rx="3" ry="3" style="stroke:#038048;stroke-width:1.0;"/><text fill="#000000" font-family="sans-serif" font-size="14" lengthAdjust="spacing" textLength="170" x="400" y="221.9531">void delete() (destructor)</text><ellipse cx="391" cy="234.6504" fill="#84BE84" rx="3" ry="3" style="stroke:#038048;stroke-width:1.0;"/><text fill="#000000" font-family="sans-serif" font-size="14" lengthAdjust="spacing" textLength="335" x="400" y="238.4414">boolean hasOverlappingUsagePeriod(Item other)</text><ellipse cx="391" cy="251.1387" fill="#84BE84" rx="3" ry="3" style="stroke:#038048;stroke-width:1.0;"/><text fill="#000000" font-family="sans-serif" font-size="14" lengthAdjust="spacing" textLength="80" x="400" y="254.9297">void move()</text><ellipse cx="391" cy="267.627" fill="#84BE84" rx="3" ry="3" style="stroke:#038048;stroke-width:1.0;"/><text fill="#000000" font-family="sans-serif" font-size="14" lengthAdjust="spacing" textLength="130" x="400" y="271.418">Directory getRoot()</text><ellipse cx="391" cy="284.1152" fill="#84BE84" rx="3" ry="3" style="stroke:#038048;stroke-width:1.0;"/><text fill="#000000" font-family="sans-serif" font-size="14" lengthAdjust="spacing" textLength="342" x="400" y="287.9063">boolean isDirectorOrIndirectChildOf(Directory dir)</text><ellipse cx="391" cy="300.6035" fill="#84BE84" rx="3" ry="3" style="stroke:#038048;stroke-width:1.0;"/><text fill="#000000" font-family="sans-serif" font-size="14" lengthAdjust="spacing" textLength="160" x="400" y="304.3945">int getTotalDiskUsage()</text><ellipse cx="391" cy="317.0918" fill="#84BE84" rx="3" ry="3" style="stroke:#038048;stroke-width:1.0;"/><text fill="#000000" font-family="sans-serif" font-size="14" lengthAdjust="spacing" textLength="168" x="400" y="320.8828">String getAbsolutePath()</text><ellipse cx="391" cy="333.5801" fill="#84BE84" rx="3" ry="3" style="stroke:#038048;stroke-width:1.0;"/><text fill="#000000" font-family="sans-serif" font-size="14" lengthAdjust="spacing" textLength="117" x="400" y="337.3711">deleteRecursive()</text><ellipse cx="391" cy="370.5566" fill="#84BE84" rx="3" ry="3" style="stroke:#038048;stroke-width:1.0;"/><text fill="#000000" font-family="sans-serif" font-size="14" lengthAdjust="spacing" textLength="160" x="400" y="374.3477">Date getCreationTime()</text><ellipse cx="391" cy="387.0449" fill="#84BE84" rx="3" ry="3" style="stroke:#038048;stroke-width:1.0;"/><text fill="#000000" font-family="sans-serif" font-size="14" lengthAdjust="spacing" textLength="186" x="400" y="390.8359">Date getModificationTime()</text><rect fill="#F24D5C" height="6" style="stroke:#C82930;stroke-width:1.0;" width="6" x="388" y="400.5332"/><text fill="#000000" font-family="sans-serif" font-size="14" lengthAdjust="spacing" textLength="337" x="400" y="407.3242">void setModificationTime(Date modificationTime)</text><line style="stroke:#181818;stroke-width:1.0;stroke-dasharray:1.0,2.0;" x1="381" x2="507.5" y1="352.5684" y2="352.5684"/><text fill="#000000" font-family="sans-serif" font-size="14" lengthAdjust="spacing" textLength="113" x="507.5" y="357.3594">Getters &amp; setters</text><line style="stroke:#181818;stroke-width:1.0;stroke-dasharray:1.0,2.0;" x1="620.5" x2="747" y1="352.5684" y2="352.5684"/></g><!--class File--><g id="elem_File"><rect codeLine="28" fill="#F1F1F1" height="393.7656" id="File" rx="2.5" ry="2.5" style="stroke:#181818;stroke-width:0.5;" width="531" x="22.5" y="760.18"/><ellipse cx="271.75" cy="776.18" fill="#ADD1B2" rx="11" ry="11" style="stroke:#181818;stroke-width:1.0;"/><path d="M274.7231,781.8231 Q274.1421,782.1219 273.5029,782.2713 Q272.8638,782.4207 272.1582,782.4207 Q269.6514,782.4207 268.3315,780.7689 Q267.0117,779.117 267.0117,775.9959 Q267.0117,772.8665 268.3315,771.2147 Q269.6514,769.5628 272.1582,769.5628 Q272.8638,769.5628 273.5112,769.7122 Q274.1587,769.8616 274.7231,770.1605 L274.7231,772.8831 Q274.0923,772.3021 273.4988,772.0323 Q272.9053,771.7625 272.2744,771.7625 Q270.9297,771.7625 270.2449,772.8292 Q269.5601,773.8958 269.5601,775.9959 Q269.5601,778.0877 270.2449,779.1544 Q270.9297,780.221 272.2744,780.221 Q272.9053,780.221 273.4988,779.9512 Q274.0923,779.6815 274.7231,779.1004 Z " fill="#000000"/><text fill="#000000" font-family="sans-serif" font-size="14" lengthAdjust="spacing" textLength="24" x="292.25" y="781.471">File</text><line style="stroke:#181818;stroke-width:0.5;" x1="23.5" x2="552.5" y1="792.18" y2="792.18"/><rect fill="none" height="6" style="stroke:#C82930;stroke-width:1.0;" width="6" x="30.5" y="802.9241"/><text fill="#000000" font-family="sans-serif" font-size="14" lengthAdjust="spacing" textLength="49" x="42.5" y="809.7152">int size</text><rect fill="none" height="6" style="stroke:#C82930;stroke-width:1.0;" width="6" x="30.5" y="819.4124"/><text fill="#000000" font-family="sans-serif" font-size="14" lengthAdjust="spacing" text-decoration="underline" textLength="88" x="42.5" y="826.2034">int MAX_SIZE</text><rect fill="none" height="6" style="stroke:#C82930;stroke-width:1.0;" width="6" x="30.5" y="835.9007"/><text fill="#000000" font-family="sans-serif" font-size="14" lengthAdjust="spacing" textLength="123" x="42.5" y="842.6917">boolean writeable</text><rect fill="none" height="6" style="stroke:#C82930;stroke-width:1.0;" width="6" x="30.5" y="852.389"/><text fill="#000000" font-family="sans-serif" font-size="14" lengthAdjust="spacing" textLength="120" x="42.5" y="859.18">final Filetype type</text><line style="stroke:#181818;stroke-width:0.5;" x1="23.5" x2="552.5" y1="866.1331" y2="866.1331"/><ellipse cx="33.5" cy="879.8773" fill="#84BE84" rx="3" ry="3" style="stroke:#038048;stroke-width:1.0;"/><text fill="#000000" font-family="sans-serif" font-size="14" lengthAdjust="spacing" textLength="505" x="42.5" y="883.6683">File(Directory dir, String name, float size, boolean writeable, Filetype type)</text><ellipse cx="33.5" cy="896.3655" fill="#84BE84" rx="3" ry="3" style="stroke:#038048;stroke-width:1.0;"/><text fill="#000000" font-family="sans-serif" font-size="14" lengthAdjust="spacing" textLength="304" x="42.5" y="900.1566">File(Directory dir, String name, Filetype type)</text><line style="stroke:#181818;stroke-width:1.0;stroke-dasharray:1.0,2.0;" x1="23.5" x2="552.5" y1="907.1097" y2="907.1097"/><ellipse cx="33.5" cy="920.8538" fill="#84BE84" rx="3" ry="3" style="stroke:#038048;stroke-width:1.0;"/><text fill="#000000" font-family="sans-serif" font-size="14" lengthAdjust="spacing" textLength="145" x="42.5" y="924.6448">boolean isWriteable()</text><ellipse cx="33.5" cy="937.3421" fill="#84BE84" rx="3" ry="3" style="stroke:#038048;stroke-width:1.0;"/><text fill="#000000" font-family="sans-serif" font-size="14" lengthAdjust="spacing" textLength="221" x="42.5" y="941.1331">boolean canHaveAsSize(int size)</text><ellipse cx="33.5" cy="953.8304" fill="#84BE84" rx="3" ry="3" style="stroke:#038048;stroke-width:1.0;"/><text fill="#000000" font-family="sans-serif" font-size="14" lengthAdjust="spacing" textLength="210" x="42.5" y="957.6214">void enlarge(int amountOfBits)</text><ellipse cx="33.5" cy="970.3187" fill="#84BE84" rx="3" ry="3" style="stroke:#038048;stroke-width:1.0;"/><text fill="#000000" font-family="sans-serif" font-size="14" lengthAdjust="spacing" textLength="211" x="42.5" y="974.1097">void shorten(int amountOfBits)</text><ellipse cx="33.5" cy="1007.2952" fill="#84BE84" rx="3" ry="3" style="stroke:#038048;stroke-width:1.0;"/><text fill="#000000" font-family="sans-serif" font-size="14" lengthAdjust="spacing" textLength="95" x="42.5" y="1011.0863">float getSize()</text><ellipse cx="33.5" cy="1023.7835" fill="#84BE84" rx="3" ry="3" style="stroke:#038048;stroke-width:1.0;"/><text fill="#000000" font-family="sans-serif" font-size="14" lengthAdjust="spacing" textLength="140" x="42.5" y="1027.5745">void setSize(int size)</text><ellipse cx="33.5" cy="1040.2718" fill="#84BE84" rx="3" ry="3" style="stroke:#038048;stroke-width:1.0;"/><text fill="#000000" font-family="sans-serif" font-size="14" lengthAdjust="spacing" textLength="110" x="42.5" y="1044.0628">Sting getName()</text><rect fill="#F24D5C" height="6" style="stroke:#C82930;stroke-width:1.0;" width="6" x="30.5" y="1053.7601"/><text fill="#000000" font-family="sans-serif" font-size="14" lengthAdjust="spacing" textLength="185" x="42.5" y="1060.5511">void setName(String name)</text><ellipse cx="33.5" cy="1073.2484" fill="#84BE84" rx="3" ry="3" style="stroke:#038048;stroke-width:1.0;"/><text fill="#000000" font-family="sans-serif" font-size="14" lengthAdjust="spacing" textLength="250" x="42.5" y="1077.0394">void setWriteable(boolean writeable)</text><line style="stroke:#181818;stroke-width:1.0;stroke-dasharray:1.0,2.0;" x1="23.5" x2="231.5" y1="989.307" y2="989.307"/><text fill="#000000" font-family="sans-serif" font-size="14" lengthAdjust="spacing" textLength="113" x="231.5" y="994.098">Getters &amp; setters</text><line style="stroke:#181818;stroke-width:1.0;stroke-dasharray:1.0,2.0;" x1="344.5" x2="552.5" y1="989.307" y2="989.307"/><ellipse cx="33.5" cy="1110.2249" fill="#84BE84" rx="3" ry="3" style="stroke:#038048;stroke-width:1.0;"/><text fill="#000000" font-family="sans-serif" font-size="14" lengthAdjust="spacing" textLength="153" x="42.5" y="1114.0159">boolean isDeleteable()</text><ellipse cx="33.5" cy="1126.7132" fill="#84BE84" rx="3" ry="3" style="stroke:#038048;stroke-width:1.0;"/><text fill="#000000" font-family="sans-serif" font-size="14" lengthAdjust="spacing" textLength="170" x="42.5" y="1130.5042">void delete() (destructor)</text><ellipse cx="33.5" cy="1143.2015" fill="#84BE84" rx="3" ry="3" style="stroke:#038048;stroke-width:1.0;"/><text fill="#000000" font-family="sans-serif" font-size="14" lengthAdjust="spacing" textLength="160" x="42.5" y="1146.9925">int getTotalDiskUsage()</text><line style="stroke:#181818;stroke-width:1.0;stroke-dasharray:1.0,2.0;" x1="23.5" x2="255" y1="1092.2366" y2="1092.2366"/><text fill="#000000" font-family="sans-serif" font-size="14" lengthAdjust="spacing" textLength="66" x="255" y="1097.0277">Overrides</text><line style="stroke:#181818;stroke-width:1.0;stroke-dasharray:1.0,2.0;" x1="321" x2="552.5" y1="1092.2366" y2="1092.2366"/></g><!--class Filetype--><g id="elem_Filetype"><rect codeLine="53" fill="#F1F1F1" height="97.4648" id="Filetype" rx="2.5" ry="2.5" style="stroke:#181818;stroke-width:0.5;" width="92" x="242" y="1230.95"/><ellipse cx="260.15" cy="1246.95" fill="#EB937F" rx="11" ry="11" style="stroke:#181818;stroke-width:1.0;"/><path d="M264.2643,1252.95 L256.5445,1252.95 L256.5445,1240.5569 L264.2643,1240.5569 L264.2643,1242.7151 L258.9933,1242.7151 L258.9933,1245.388 L263.7662,1245.388 L263.7662,1247.5462 L258.9933,1247.5462 L258.9933,1250.7918 L264.2643,1250.7918 Z " fill="#000000"/><text fill="#000000" font-family="sans-serif" font-size="14" lengthAdjust="spacing" textLength="53" x="274.85" y="1252.241">Filetype</text><line style="stroke:#181818;stroke-width:0.5;" x1="243" x2="333" y1="1262.95" y2="1262.95"/><line style="stroke:#181818;stroke-width:0.5;" x1="243" x2="333" y1="1270.95" y2="1270.95"/><text fill="#000000" font-family="sans-serif" font-size="14" lengthAdjust="spacing" textLength="78" x="248" y="1288.4852">TEXT("txt"),</text><text fill="#000000" font-family="sans-serif" font-size="14" lengthAdjust="spacing" textLength="73" x="248" y="1304.9734">PDF("pdf"),</text><text fill="#000000" font-family="sans-serif" font-size="14" lengthAdjust="spacing" textLength="80" x="248" y="1321.4617">JAVA("java")</text></g><!--class Directory--><g id="elem_Directory"><rect codeLine="59" fill="#F1F1F1" height="373.2773" id="Directory" rx="2.5" ry="2.5" style="stroke:#181818;stroke-width:0.5;" width="405" x="588.5" y="770.42"/><ellipse cx="755.75" cy="786.42" fill="#ADD1B2" rx="11" ry="11" style="stroke:#181818;stroke-width:1.0;"/><path d="M758.7231,792.0631 Q758.1421,792.3619 757.5029,792.5113 Q756.8638,792.6607 756.1582,792.6607 Q753.6514,792.6607 752.3315,791.0089 Q751.0117,789.357 751.0117,786.2359 Q751.0117,783.1065 752.3315,781.4547 Q753.6514,779.8028 756.1582,779.8028 Q756.8638,779.8028 757.5112,779.9522 Q758.1587,780.1016 758.7231,780.4005 L758.7231,783.1231 Q758.0923,782.5421 757.4988,782.2723 Q756.9053,782.0025 756.2744,782.0025 Q754.9297,782.0025 754.2449,783.0692 Q753.5601,784.1358 753.5601,786.2359 Q753.5601,788.3277 754.2449,789.3944 Q754.9297,790.461 756.2744,790.461 Q756.9053,790.461 757.4988,790.1912 Q758.0923,789.9215 758.7231,789.3404 Z " fill="#000000"/><text fill="#000000" font-family="sans-serif" font-size="14" lengthAdjust="spacing" textLength="62" x="776.25" y="791.711">Directory</text><line style="stroke:#181818;stroke-width:0.5;" x1="589.5" x2="992.5" y1="802.42" y2="802.42"/><rect fill="none" height="6" style="stroke:#C82930;stroke-width:1.0;" width="6" x="596.5" y="813.1641"/><text fill="#000000" font-family="sans-serif" font-size="14" lengthAdjust="spacing" textLength="123" x="608.5" y="819.9552">boolean writeable</text><rect fill="none" height="6" style="stroke:#C82930;stroke-width:1.0;" width="6" x="596.5" y="829.6524"/><text fill="#000000" font-family="sans-serif" font-size="14" lengthAdjust="spacing" textLength="153" x="608.5" y="836.4434">ArrayList&lt;Item&gt; items</text><line style="stroke:#181818;stroke-width:0.5;" x1="589.5" x2="992.5" y1="843.3966" y2="843.3966"/><ellipse cx="599.5" cy="857.1407" fill="#84BE84" rx="3" ry="3" style="stroke:#038048;stroke-width:1.0;"/><text fill="#000000" font-family="sans-serif" font-size="14" lengthAdjust="spacing" textLength="379" x="608.5" y="860.9317">Directory(Directory dir, String name, boolean writeable)</text><ellipse cx="599.5" cy="873.629" fill="#84BE84" rx="3" ry="3" style="stroke:#038048;stroke-width:1.0;"/><text fill="#000000" font-family="sans-serif" font-size="14" lengthAdjust="spacing" textLength="248" x="608.5" y="877.42">Directory(Directory dir, String name)</text><ellipse cx="599.5" cy="890.1173" fill="#84BE84" rx="3" ry="3" style="stroke:#038048;stroke-width:1.0;"/><text fill="#000000" font-family="sans-serif" font-size="14" lengthAdjust="spacing" textLength="278" x="608.5" y="893.9083">Directory(String name, boolean writable)</text><ellipse cx="599.5" cy="906.6055" fill="#84BE84" rx="3" ry="3" style="stroke:#038048;stroke-width:1.0;"/><text fill="#000000" font-family="sans-serif" font-size="14" lengthAdjust="spacing" textLength="155" x="608.5" y="910.3966">Directory(String name)</text><line style="stroke:#181818;stroke-width:0.5;" x1="589.5" x2="992.5" y1="917.3497" y2="917.3497"/><ellipse cx="599.5" cy="931.0938" fill="#84BE84" rx="3" ry="3" style="stroke:#038048;stroke-width:1.0;"/><text fill="#000000" font-family="sans-serif" font-size="14" lengthAdjust="spacing" textLength="163" x="608.5" y="934.8848">void addItem(Item item)</text><ellipse cx="599.5" cy="947.5821" fill="#84BE84" rx="3" ry="3" style="stroke:#038048;stroke-width:1.0;"/><text fill="#000000" font-family="sans-serif" font-size="14" lengthAdjust="spacing" textLength="110" x="608.5" y="951.3731">int getNbItems()</text><ellipse cx="599.5" cy="964.0704" fill="#84BE84" rx="3" ry="3" style="stroke:#038048;stroke-width:1.0;"/><text fill="#000000" font-family="sans-serif" font-size="14" lengthAdjust="spacing" textLength="172" x="608.5" y="967.8614">Item getItemAt(int index)</text><ellipse cx="599.5" cy="980.5587" fill="#84BE84" rx="3" ry="3" style="stroke:#038048;stroke-width:1.0;"/><text fill="#000000" font-family="sans-serif" font-size="14" lengthAdjust="spacing" textLength="179" x="608.5" y="984.3497">Item getItem(String name)</text><ellipse cx="599.5" cy="997.047" fill="#84BE84" rx="3" ry="3" style="stroke:#038048;stroke-width:1.0;"/><text fill="#000000" font-family="sans-serif" font-size="14" lengthAdjust="spacing" textLength="339" x="608.5" y="1000.838">boolean containsDiskItemWithName(String name)</text><ellipse cx="599.5" cy="1013.5352" fill="#84BE84" rx="3" ry="3" style="stroke:#038048;stroke-width:1.0;"/><text fill="#000000" font-family="sans-serif" font-size="14" lengthAdjust="spacing" textLength="173" x="608.5" y="1017.3263">int getIndexOf(Item item)</text><ellipse cx="599.5" cy="1030.0235" fill="#84BE84" rx="3" ry="3" style="stroke:#038048;stroke-width:1.0;"/><text fill="#000000" font-family="sans-serif" font-size="14" lengthAdjust="spacing" textLength="205" x="608.5" y="1033.8145">boolean hasAsItem(Item item)</text><ellipse cx="599.5" cy="1046.5118" fill="#84BE84" rx="3" ry="3" style="stroke:#038048;stroke-width:1.0;"/><text fill="#000000" font-family="sans-serif" font-size="14" lengthAdjust="spacing" textLength="112" x="608.5" y="1050.3028">void makeRoot()</text><ellipse cx="599.5" cy="1083.4884" fill="#84BE84" rx="3" ry="3" style="stroke:#038048;stroke-width:1.0;"/><text fill="#000000" font-family="sans-serif" font-size="14" lengthAdjust="spacing" textLength="183" x="608.5" y="1087.2794">boolean canHaveAsName()</text><ellipse cx="599.5" cy="1099.9766" fill="#84BE84" rx="3" ry="3" style="stroke:#038048;stroke-width:1.0;"/><text fill="#000000" font-family="sans-serif" font-size="14" lengthAdjust="spacing" textLength="153" x="608.5" y="1103.7677">boolean isDeleteable()</text><ellipse cx="599.5" cy="1116.4649" fill="#84BE84" rx="3" ry="3" style="stroke:#038048;stroke-width:1.0;"/><text fill="#000000" font-family="sans-serif" font-size="14" lengthAdjust="spacing" textLength="170" x="608.5" y="1120.2559">void delete() (destructor)</text><ellipse cx="599.5" cy="1132.9532" fill="#84BE84" rx="3" ry="3" style="stroke:#038048;stroke-width:1.0;"/><text fill="#000000" font-family="sans-serif" font-size="14" lengthAdjust="spacing" textLength="160" x="608.5" y="1136.7442">int getTotalDiskUsage()</text><line style="stroke:#181818;stroke-width:1.0;stroke-dasharray:1.0,2.0;" x1="589.5" x2="753.5" y1="1065.5001" y2="1065.5001"/><text fill="#000000" font-family="sans-serif" font-size="14" lengthAdjust="spacing" textLength="75" x="753.5" y="1070.2911">Overriddes</text><line style="stroke:#181818;stroke-width:1.0;stroke-dasharray:1.0,2.0;" x1="828.5" x2="992.5" y1="1065.5001" y2="1065.5001"/></g><!--class Link--><g id="elem_Link"><rect codeLine="83" fill="#F1F1F1" height="191.9063" id="Link" rx="2.5" ry="2.5" style="stroke:#181818;stroke-width:0.5;" width="334" x="397" y="491.27"/><ellipse cx="545.75" cy="507.27" fill="#ADD1B2" rx="11" ry="11" style="stroke:#181818;stroke-width:1.0;"/><path d="M548.7231,512.9131 Q548.1421,513.2119 547.5029,513.3613 Q546.8638,513.5107 546.1582,513.5107 Q543.6514,513.5107 542.3315,511.8589 Q541.0117,510.207 541.0117,507.0859 Q541.0117,503.9565 542.3315,502.3047 Q543.6514,500.6528 546.1582,500.6528 Q546.8638,500.6528 547.5112,500.8022 Q548.1587,500.9516 548.7231,501.2505 L548.7231,503.9731 Q548.0923,503.3921 547.4988,503.1223 Q546.9053,502.8525 546.2744,502.8525 Q544.9297,502.8525 544.2449,503.9192 Q543.5601,504.9858 543.5601,507.0859 Q543.5601,509.1777 544.2449,510.2444 Q544.9297,511.311 546.2744,511.311 Q546.9053,511.311 547.4988,511.0412 Q548.0923,510.7715 548.7231,510.1904 Z " fill="#000000"/><text fill="#000000" font-family="sans-serif" font-size="14" lengthAdjust="spacing" textLength="28" x="566.25" y="512.561">Link</text><line style="stroke:#181818;stroke-width:0.5;" x1="398" x2="730" y1="523.27" y2="523.27"/><rect fill="#F24D5C" height="6" style="stroke:#C82930;stroke-width:1.0;" width="6" x="405" y="534.0141"/><text fill="#000000" font-family="sans-serif" font-size="14" lengthAdjust="spacing" textLength="230" x="417" y="540.8052">Item linkedItem (not another link)</text><line style="stroke:#181818;stroke-width:0.5;" x1="398" x2="730" y1="547.7583" y2="547.7583"/><ellipse cx="408" cy="561.5024" fill="#84BE84" rx="3" ry="3" style="stroke:#038048;stroke-width:1.0;"/><text fill="#000000" font-family="sans-serif" font-size="14" lengthAdjust="spacing" textLength="308" x="417" y="565.2934">Link(Directory dir, String name, Filetype type)</text><line style="stroke:#181818;stroke-width:1.0;stroke-dasharray:1.0,2.0;" x1="398" x2="730" y1="572.2466" y2="572.2466"/><ellipse cx="408" cy="585.9907" fill="#84BE84" rx="3" ry="3" style="stroke:#038048;stroke-width:1.0;"/><text fill="#000000" font-family="sans-serif" font-size="14" lengthAdjust="spacing" textLength="196" x="417" y="589.7817">void changeLinkTo(Link link)</text><ellipse cx="408" cy="602.479" fill="#84BE84" rx="3" ry="3" style="stroke:#038048;stroke-width:1.0;"/><text fill="#000000" font-family="sans-serif" font-size="14" lengthAdjust="spacing" textLength="86" x="417" y="606.27">void unlink()</text><ellipse cx="408" cy="639.4555" fill="#84BE84" rx="3" ry="3" style="stroke:#038048;stroke-width:1.0;"/><text fill="#000000" font-family="sans-serif" font-size="14" lengthAdjust="spacing" textLength="153" x="417" y="643.2466">boolean isDeleteable()</text><ellipse cx="408" cy="655.9438" fill="#84BE84" rx="3" ry="3" style="stroke:#038048;stroke-width:1.0;"/><text fill="#000000" font-family="sans-serif" font-size="14" lengthAdjust="spacing" textLength="170" x="417" y="659.7348">void delete() (destructor)</text><ellipse cx="408" cy="672.4321" fill="#84BE84" rx="3" ry="3" style="stroke:#038048;stroke-width:1.0;"/><text fill="#000000" font-family="sans-serif" font-size="14" lengthAdjust="spacing" textLength="160" x="417" y="676.2231">int getTotalDiskUsage()</text><line style="stroke:#181818;stroke-width:1.0;stroke-dasharray:1.0,2.0;" x1="398" x2="531" y1="621.4673" y2="621.4673"/><text fill="#000000" font-family="sans-serif" font-size="14" lengthAdjust="spacing" textLength="66" x="531" y="626.2583">Overrides</text><line style="stroke:#181818;stroke-width:1.0;stroke-dasharray:1.0,2.0;" x1="597" x2="730" y1="621.4673" y2="621.4673"/></g><!--reverse link Item to Link--><g id="link_Item_Link"><path codeLine="96" d="M564,432.76 C564,459.24 564,467.5 564,491.21 " fill="none" id="Item-backto-Link" style="stroke:#181818;stroke-width:1.0;"/><polygon fill="none" points="564,414.76,558,432.76,570,432.76,564,414.76" style="stroke:#181818;stroke-width:1.0;"/><text fill="#000000" font-family="sans-serif" font-size="13" lengthAdjust="spacing" textLength="82" x="565" y="457.8384">inherits from</text></g><!--reverse link Item to File--><g id="link_Item_File"><path codeLine="97" d="M367.2728,382.4034 C332.9728,418.1234 314.34,446.3 295,491.27 C259.21,574.49 253.46,674.09 258.28,759.71 " fill="none" id="Item-backto-File" style="stroke:#181818;stroke-width:1.0;"/><polygon fill="none" points="379.74,369.42,362.945,378.2476,371.6006,386.5591,379.74,369.42" style="stroke:#181818;stroke-width:1.0;"/><text fill="#000000" font-family="sans-serif" font-size="13" lengthAdjust="spacing" textLength="82" x="296" y="592.2984">inherits from</text></g><!--reverse link Item to Directory--><g id="link_Item_Directory"><path codeLine="98" d="M721.2204,430.1859 C735.6904,454.9159 739.44,465.23 749,491.27 C781.36,579.4 793.03,682.98 796.11,769.96 " fill="none" id="Item-backto-Directory" style="stroke:#181818;stroke-width:1.0;"/><polygon fill="none" points="712.13,414.65,716.0417,433.2161,726.399,427.1558,712.13,414.65" style="stroke:#181818;stroke-width:1.0;"/><text fill="#000000" font-family="sans-serif" font-size="13" lengthAdjust="spacing" textLength="82" x="790" y="592.2984">inherits from</text></g><!--link File to Filetype--><g id="link_File_Filetype"><path codeLine="100" d="M288,1154.26 C288,1182.47 288,1209.12 288,1230.46 " fill="none" id="File-Filetype" style="stroke:#181818;stroke-width:1.0;stroke-dasharray:7.0,7.0;"/><text fill="#000000" font-family="sans-serif" font-size="13" lengthAdjust="spacing" textLength="29" x="289" y="1197.5184">uses</text></g><!--link Link to File--><g id="link_Link_File"><path codeLine="102" d="M492.56,683.43 C474.84,707.06 458.7817,728.4613 438.8617,755.0013 " fill="none" id="Link-to-File" style="stroke:#181818;stroke-width:1.0;"/><polygon fill="#181818" points="435.26,759.8,443.8617,755.0031,438.2614,755.8011,437.4635,750.2008,435.26,759.8" style="stroke:#181818;stroke-width:1.0;"/><text fill="#000000" font-family="sans-serif" font-size="13" lengthAdjust="spacing" textLength="65" x="467" y="726.7484">references</text></g><!--link Link to Directory--><g id="link_Link_Directory"><path codeLine="103" d="M622.75,683.43 C639.24,710.15 654.5978,735.0447 673.1578,765.1047 " fill="none" id="Link-to-Directory" style="stroke:#181818;stroke-width:1.0;"/><polygon fill="#181818" points="676.31,770.21,674.9853,760.4506,673.6832,765.9556,668.1782,764.6535,676.31,770.21" style="stroke:#181818;stroke-width:1.0;"/><text fill="#000000" font-family="sans-serif" font-size="13" lengthAdjust="spacing" textLength="65" x="651" y="726.7484">references</text></g><!--SRC=[lLLTRzem57tFhx1uc886_82ggfILTcDgIrNOMksbCiaDyKXiPD-miQx_VRRZV1AwgjB6Gw7tt7jyFywrjpJSq3MGcAMWzWeX8q-UHrSA9GsHp0e3qPynMQ1aV4qupS1PfXI1X18eCi6Nh6tFHCHY5jROuwE5trjMly4sz2OJ1ws4I85o4bB-YUuWK3SQzuSEtGaMaJ2XV0qjUnd5r1HIGA2hj1CKMRi_97u4khOyH26xqGbLynt8b6wtEhClIlVb5YGJaM_R8301sIBDnAu-Piea6DOzMGFU2O5zsJcVkPpnoFu-JrWQpME_ZjRsCf1nD6HBWJITChMnALMqhe7Q8LWfaUO8jnIJ2YugleCmbuhPF2UJZu08Kf5tH1M_ghxRYMcgyyOmwz8SUDsPg7CO5zrGFGwzGXXwpvuNfbGfSgbbL-dBbAlOhr94JmfrIFXixTV1m-DYzkt2OMLBVqXMJDlPOyPfQbbnlmLY_jIoC-PseqTDJOz8d0fQf30wF67KfXs-bhGJTQ1qfkxB8muKKst1GkVab_rfQH1uIkMw06acSexp-0D3rN9IYP08lCVf9KqKxT1pjwUt2Psncz82dIGRwrdBmnfRUz-ch1jnq7sJgLbEoVJ-zlJmBNj_RBsqEe7dMJsvGg3BYuUbFy2VE1YEhE5sUkaFjb5S_lyv-1huW-zqHmSDYTVQUFgBU0CfwVwAAJmrzyqPqMYcQlbMH2_AhQTphmy_z3tAtK_TugeojvEWKMJlVNkNcj8wOxXP6KHLuxD-scw-0xHAOpo2dtrudwYg7H8SAUFAJDZutZDCZWdHfJ8pv-XB-I3LnaiHgFvgYeU1Ri0z0PC9SRhL0YIlVEV-cQuBILunlgdKQ2j8jGNiV8ZFXRuak7tjhBqnI1FufikkyN0RZgNmRGu5VSCbvyRa_-TjjtMV_XwFRO4dsbNNhgz74akHDL1JtN6qwalNnREld1P2sPqJaYjGdcTxC1wVEM89CKZWeOOgf47QW7NIVm00]--></g></svg>