<?xml version="1.0" encoding="us-ascii" standalone="no"?><svg xmlns="http://www.w3.org/2000/svg" xmlns:xlink="http://www.w3.org/1999/xlink" contentStyleType="text/css" height="1689px" preserveAspectRatio="none" style="width:1017px;height:1689px;background:#FFFFFF;" version="1.1" viewBox="0 0 1017 1689" width="1017px" zoomAndPan="magnify"><defs/><g><!--cluster filesystem--><g id="cluster_filesystem"><path d="M8.5,6 L85.5,6 A3.75,3.75 0 0 1 88,8.5 L95,28.4883 L1007.5,28.4883 A2.5,2.5 0 0 1 1010,30.9883 L1010,1679.68 A2.5,2.5 0 0 1 1007.5,1682.18 L8.5,1682.18 A2.5,2.5 0 0 1 6,1679.68 L6,8.5 A2.5,2.5 0 0 1 8.5,6 " fill="none" style="stroke:#000000;stroke-width:1.5;"/><line style="stroke:#000000;stroke-width:1.5;" x1="6" x2="95" y1="28.4883" y2="28.4883"/><text fill="#000000" font-family="sans-serif" font-size="14" font-weight="bold" lengthAdjust="spacing" textLength="76" x="10" y="21.5352">filesystem</text></g><!--class Item--><g id="elem_Item"><rect codeLine="4" fill="#F1F1F1" height="525.6719" id="Item" rx="2.5" ry="2.5" style="stroke:#181818;stroke-width:0.5;" width="368" x="380" y="41"/><ellipse cx="544.75" cy="57" fill="#A9DCDF" rx="11" ry="11" style="stroke:#181818;stroke-width:1.0;"/><path d="M544.8633,52.3481 L543.7095,57.4199 L546.0254,57.4199 Z M543.3691,50.1069 L546.3657,50.1069 L549.7109,62.5 L547.2622,62.5 L546.4985,59.437 L543.2197,59.437 L542.4727,62.5 L540.0239,62.5 Z " fill="#000000"/><text fill="#000000" font-family="sans-serif" font-size="14" font-style="italic" lengthAdjust="spacing" textLength="30" x="565.25" y="62.291">Item</text><line style="stroke:#181818;stroke-width:0.5;" x1="381" x2="747" y1="73" y2="73"/><rect fill="none" height="6" style="stroke:#C82930;stroke-width:1.0;" width="6" x="388" y="83.7441"/><text fill="#000000" font-family="sans-serif" font-size="14" lengthAdjust="spacing" textLength="83" x="400" y="90.5352">String name</text><rect fill="none" height="6" style="stroke:#C82930;stroke-width:1.0;" width="6" x="388" y="100.2324"/><text fill="#000000" font-family="sans-serif" font-size="14" lengthAdjust="spacing" textLength="125" x="400" y="107.0234">Date creationTime</text><rect fill="none" height="6" style="stroke:#C82930;stroke-width:1.0;" width="6" x="388" y="116.7207"/><text fill="#000000" font-family="sans-serif" font-size="14" lengthAdjust="spacing" textLength="155" x="400" y="123.5117">Date modificationTime</text><rect fill="none" height="6" style="stroke:#C82930;stroke-width:1.0;" width="6" x="388" y="133.209"/><text fill="#000000" font-family="sans-serif" font-size="14" lengthAdjust="spacing" textLength="111" x="400" y="140">Directory parent</text><line style="stroke:#181818;stroke-width:0.5;" x1="381" x2="747" y1="146.9531" y2="146.9531"/><ellipse cx="391" cy="160.6973" fill="#84BE84" rx="3" ry="3" style="stroke:#038048;stroke-width:1.0;"/><text fill="#000000" font-family="sans-serif" font-size="14" lengthAdjust="spacing" textLength="123" x="400" y="164.4883">Item(String naam)</text><line style="stroke:#181818;stroke-width:1.0;stroke-dasharray:1.0,2.0;" x1="381" x2="747" y1="171.4414" y2="171.4414"/><ellipse cx="391" cy="185.1855" fill="#84BE84" rx="3" ry="3" style="stroke:#038048;stroke-width:1.0;"/><text fill="#000000" font-family="sans-serif" font-size="14" lengthAdjust="spacing" textLength="215" x="400" y="188.9766">void changeName(String name)</text><ellipse cx="391" cy="201.6738" fill="#84BE84" rx="3" ry="3" style="stroke:#038048;stroke-width:1.0;"/><text fill="#000000" font-family="sans-serif" font-size="14" lengthAdjust="spacing" textLength="153" x="400" y="205.4648">boolean isDeleteable()</text><ellipse cx="391" cy="218.1621" fill="#84BE84" rx="3" ry="3" style="stroke:#038048;stroke-width:1.0;"/><text fill="#000000" font-family="sans-serif" font-size="14" lengthAdjust="spacing" textLength="170" x="400" y="221.9531">void delete() (destructor)</text><ellipse cx="391" cy="234.6504" fill="#84BE84" rx="3" ry="3" style="stroke:#038048;stroke-width:1.0;"/><text fill="#000000" font-family="sans-serif" font-size="14" lengthAdjust="spacing" textLength="335" x="400" y="238.4414">boolean hasOverlappingUsagePeriod(Item other)</text><ellipse cx="391" cy="251.1387" fill="#84BE84" rx="3" ry="3" style="stroke:#038048;stroke-width:1.0;"/><text fill="#000000" font-family="sans-serif" font-size="14" lengthAdjust="spacing" textLength="165" x="400" y="254.9297">void move(Directory dir)</text><ellipse cx="391" cy="267.627" fill="#84BE84" rx="3" ry="3" style="stroke:#038048;stroke-width:1.0;"/><text fill="#000000" font-family="sans-serif" font-size="14" lengthAdjust="spacing" textLength="130" x="400" y="271.418">Directory getRoot()</text><ellipse cx="391" cy="284.1152" fill="#84BE84" rx="3" ry="3" style="stroke:#038048;stroke-width:1.0;"/><text fill="#000000" font-family="sans-serif" font-size="14" lengthAdjust="spacing" textLength="342" x="400" y="287.9063">boolean isDirectorOrIndirectChildOf(Directory dir)</text><ellipse cx="391" cy="300.6035" fill="#84BE84" rx="3" ry="3" style="stroke:#038048;stroke-width:1.0;"/><text fill="#000000" font-family="sans-serif" font-size="14" lengthAdjust="spacing" textLength="160" x="400" y="304.3945">int getTotalDiskUsage()</text><ellipse cx="391" cy="317.0918" fill="#84BE84" rx="3" ry="3" style="stroke:#038048;stroke-width:1.0;"/><text fill="#000000" font-family="sans-serif" font-size="14" lengthAdjust="spacing" textLength="168" x="400" y="320.8828">String getAbsolutePath()</text><ellipse cx="391" cy="333.5801" fill="#84BE84" rx="3" ry="3" style="stroke:#038048;stroke-width:1.0;"/><text fill="#000000" font-family="sans-serif" font-size="14" lengthAdjust="spacing" textLength="117" x="400" y="337.3711">deleteRecursive()</text><ellipse cx="391" cy="370.5566" fill="#84BE84" rx="3" ry="3" style="stroke:#038048;stroke-width:1.0;"/><text fill="#000000" font-family="sans-serif" font-size="14" lengthAdjust="spacing" textLength="116" x="400" y="374.3477">String getName()</text><rect fill="#F24D5C" height="6" style="stroke:#C82930;stroke-width:1.0;" width="6" x="388" y="384.0449"/><text fill="#000000" font-family="sans-serif" font-size="14" lengthAdjust="spacing" textLength="185" x="400" y="390.8359">void setName(String name)</text><rect fill="#F24D5C" height="6" style="stroke:#C82930;stroke-width:1.0;" width="6" x="388" y="400.5332"/><text fill="#000000" font-family="sans-serif" font-size="14" lengthAdjust="spacing" text-decoration="underline" textLength="165" x="400" y="407.3242">String getDefaultName()</text><ellipse cx="391" cy="420.0215" fill="#84BE84" rx="3" ry="3" style="stroke:#038048;stroke-width:1.0;"/><text fill="#000000" font-family="sans-serif" font-size="14" lengthAdjust="spacing" textLength="160" x="400" y="423.8125">Date getCreationTime()</text><ellipse cx="391" cy="436.5098" fill="#84BE84" rx="3" ry="3" style="stroke:#038048;stroke-width:1.0;"/><text fill="#000000" font-family="sans-serif" font-size="14" lengthAdjust="spacing" textLength="186" x="400" y="440.3008">Date getModificationTime()</text><rect fill="#F24D5C" height="6" style="stroke:#C82930;stroke-width:1.0;" width="6" x="388" y="449.998"/><text fill="#000000" font-family="sans-serif" font-size="14" lengthAdjust="spacing" textLength="337" x="400" y="456.7891">void setModificationTime(Date modificationTime)</text><line style="stroke:#181818;stroke-width:1.0;stroke-dasharray:1.0,2.0;" x1="381" x2="507.5" y1="352.5684" y2="352.5684"/><text fill="#000000" font-family="sans-serif" font-size="14" lengthAdjust="spacing" textLength="113" x="507.5" y="357.3594">Getters &amp; setters</text><line style="stroke:#181818;stroke-width:1.0;stroke-dasharray:1.0,2.0;" x1="620.5" x2="747" y1="352.5684" y2="352.5684"/><ellipse cx="391" cy="489.9746" fill="#84BE84" rx="3" ry="3" style="stroke:#038048;stroke-width:1.0;"/><text fill="#000000" font-family="sans-serif" font-size="14" lengthAdjust="spacing" text-decoration="underline" textLength="273" x="400" y="493.7656">boolean isValidCreationTime(Date date)</text><ellipse cx="391" cy="506.4629" fill="#84BE84" rx="3" ry="3" style="stroke:#038048;stroke-width:1.0;"/><text fill="#000000" font-family="sans-serif" font-size="14" lengthAdjust="spacing" textLength="237" x="400" y="510.2539">boolean isValidName(String name)</text><ellipse cx="391" cy="522.9512" fill="#84BE84" rx="3" ry="3" style="stroke:#038048;stroke-width:1.0;"/><text fill="#000000" font-family="sans-serif" font-size="14" lengthAdjust="spacing" textLength="328" x="400" y="526.7422">boolean canHaveAsModificationTime(Date date)</text><ellipse cx="391" cy="539.4395" fill="#84BE84" rx="3" ry="3" style="stroke:#038048;stroke-width:1.0;"/><text fill="#000000" font-family="sans-serif" font-size="14" lengthAdjust="spacing" textLength="188" x="400" y="543.2305">boolean canHaveAsParent()</text><ellipse cx="391" cy="555.9277" fill="#84BE84" rx="3" ry="3" style="stroke:#038048;stroke-width:1.0;"/><text fill="#000000" font-family="sans-serif" font-size="14" lengthAdjust="spacing" textLength="184" x="400" y="559.7188">boolean hasProperParent()</text><line style="stroke:#181818;stroke-width:1.0;stroke-dasharray:1.0,2.0;" x1="381" x2="532.5" y1="471.9863" y2="471.9863"/><text fill="#000000" font-family="sans-serif" font-size="14" lengthAdjust="spacing" textLength="63" x="532.5" y="476.7773">Checkers</text><line style="stroke:#181818;stroke-width:1.0;stroke-dasharray:1.0,2.0;" x1="595.5" x2="747" y1="471.9863" y2="471.9863"/></g><!--class File--><g id="elem_File"><rect codeLine="37" fill="#F1F1F1" height="496.6953" id="File" rx="2.5" ry="2.5" style="stroke:#181818;stroke-width:0.5;" width="531" x="22.5" y="980.53"/><ellipse cx="271.75" cy="996.53" fill="#ADD1B2" rx="11" ry="11" style="stroke:#181818;stroke-width:1.0;"/><path d="M274.7231,1002.1731 Q274.1421,1002.4719 273.5029,1002.6213 Q272.8638,1002.7707 272.1582,1002.7707 Q269.6514,1002.7707 268.3315,1001.1189 Q267.0117,999.467 267.0117,996.3459 Q267.0117,993.2165 268.3315,991.5647 Q269.6514,989.9128 272.1582,989.9128 Q272.8638,989.9128 273.5112,990.0622 Q274.1587,990.2116 274.7231,990.5105 L274.7231,993.2331 Q274.0923,992.6521 273.4988,992.3823 Q272.9053,992.1125 272.2744,992.1125 Q270.9297,992.1125 270.2449,993.1792 Q269.5601,994.2458 269.5601,996.3459 Q269.5601,998.4377 270.2449,999.5044 Q270.9297,1000.571 272.2744,1000.571 Q272.9053,1000.571 273.4988,1000.3012 Q274.0923,1000.0315 274.7231,999.4504 Z " fill="#000000"/><text fill="#000000" font-family="sans-serif" font-size="14" lengthAdjust="spacing" textLength="24" x="292.25" y="1001.821">File</text><line style="stroke:#181818;stroke-width:0.5;" x1="23.5" x2="552.5" y1="1012.53" y2="1012.53"/><rect fill="none" height="6" style="stroke:#C82930;stroke-width:1.0;" width="6" x="30.5" y="1023.2741"/><text fill="#000000" font-family="sans-serif" font-size="14" lengthAdjust="spacing" textLength="49" x="42.5" y="1030.0652">int size</text><rect fill="none" height="6" style="stroke:#C82930;stroke-width:1.0;" width="6" x="30.5" y="1039.7624"/><text fill="#000000" font-family="sans-serif" font-size="14" lengthAdjust="spacing" text-decoration="underline" textLength="119" x="42.5" y="1046.5534">int maximumSize</text><rect fill="none" height="6" style="stroke:#C82930;stroke-width:1.0;" width="6" x="30.5" y="1056.2507"/><text fill="#000000" font-family="sans-serif" font-size="14" lengthAdjust="spacing" textLength="120" x="42.5" y="1063.0417">final Filetype type</text><rect fill="none" height="6" style="stroke:#C82930;stroke-width:1.0;" width="6" x="30.5" y="1072.739"/><text fill="#000000" font-family="sans-serif" font-size="14" lengthAdjust="spacing" textLength="123" x="42.5" y="1079.53">boolean writeable</text><line style="stroke:#181818;stroke-width:0.5;" x1="23.5" x2="552.5" y1="1086.4831" y2="1086.4831"/><ellipse cx="33.5" cy="1100.2273" fill="#84BE84" rx="3" ry="3" style="stroke:#038048;stroke-width:1.0;"/><text fill="#000000" font-family="sans-serif" font-size="14" lengthAdjust="spacing" textLength="505" x="42.5" y="1104.0183">File(Directory dir, String name, float size, boolean writeable, Filetype type)</text><ellipse cx="33.5" cy="1116.7155" fill="#84BE84" rx="3" ry="3" style="stroke:#038048;stroke-width:1.0;"/><text fill="#000000" font-family="sans-serif" font-size="14" lengthAdjust="spacing" textLength="304" x="42.5" y="1120.5066">File(Directory dir, String name, Filetype type)</text><line style="stroke:#181818;stroke-width:1.0;stroke-dasharray:1.0,2.0;" x1="23.5" x2="552.5" y1="1127.4597" y2="1127.4597"/><ellipse cx="33.5" cy="1141.2038" fill="#84BE84" rx="3" ry="3" style="stroke:#038048;stroke-width:1.0;"/><text fill="#000000" font-family="sans-serif" font-size="14" lengthAdjust="spacing" textLength="151" x="42.5" y="1144.9948">void enlarge(int delta)</text><ellipse cx="33.5" cy="1157.6921" fill="#84BE84" rx="3" ry="3" style="stroke:#038048;stroke-width:1.0;"/><text fill="#000000" font-family="sans-serif" font-size="14" lengthAdjust="spacing" textLength="152" x="42.5" y="1161.4831">void shorten(int delta)</text><rect fill="#F24D5C" height="6" style="stroke:#C82930;stroke-width:1.0;" width="6" x="30.5" y="1171.1804"/><text fill="#000000" font-family="sans-serif" font-size="14" lengthAdjust="spacing" textLength="177" x="42.5" y="1177.9714">void changeSize(int delta)</text><ellipse cx="33.5" cy="1211.157" fill="#84BE84" rx="3" ry="3" style="stroke:#038048;stroke-width:1.0;"/><text fill="#000000" font-family="sans-serif" font-size="14" lengthAdjust="spacing" textLength="82" x="42.5" y="1214.948">int getSize()</text><rect fill="#F24D5C" height="6" style="stroke:#C82930;stroke-width:1.0;" width="6" x="30.5" y="1224.6452"/><text fill="#000000" font-family="sans-serif" font-size="14" lengthAdjust="spacing" textLength="140" x="42.5" y="1231.4363">void setSize(int size)</text><ellipse cx="33.5" cy="1244.1335" fill="#84BE84" rx="3" ry="3" style="stroke:#038048;stroke-width:1.0;"/><text fill="#000000" font-family="sans-serif" font-size="14" lengthAdjust="spacing" textLength="150" x="42.5" y="1247.9245">int getMaximumSize()</text><ellipse cx="33.5" cy="1260.6218" fill="#84BE84" rx="3" ry="3" style="stroke:#038048;stroke-width:1.0;"/><text fill="#000000" font-family="sans-serif" font-size="14" lengthAdjust="spacing" textLength="142" x="42.5" y="1264.4128">Filetype getFiletype()</text><ellipse cx="33.5" cy="1277.1101" fill="#84BE84" rx="3" ry="3" style="stroke:#038048;stroke-width:1.0;"/><text fill="#000000" font-family="sans-serif" font-size="14" lengthAdjust="spacing" textLength="110" x="42.5" y="1280.9011">Sting getName()</text><rect fill="#F24D5C" height="6" style="stroke:#C82930;stroke-width:1.0;" width="6" x="30.5" y="1290.5984"/><text fill="#000000" font-family="sans-serif" font-size="14" lengthAdjust="spacing" textLength="185" x="42.5" y="1297.3894">void setName(String name)</text><ellipse cx="33.5" cy="1310.0866" fill="#84BE84" rx="3" ry="3" style="stroke:#038048;stroke-width:1.0;"/><text fill="#000000" font-family="sans-serif" font-size="14" lengthAdjust="spacing" textLength="127" x="42.5" y="1313.8777">void setWriteable()</text><ellipse cx="33.5" cy="1326.5749" fill="#84BE84" rx="3" ry="3" style="stroke:#038048;stroke-width:1.0;"/><text fill="#000000" font-family="sans-serif" font-size="14" lengthAdjust="spacing" textLength="145" x="42.5" y="1330.3659">boolean isWriteable()</text><line style="stroke:#181818;stroke-width:1.0;stroke-dasharray:1.0,2.0;" x1="23.5" x2="231.5" y1="1193.1687" y2="1193.1687"/><text fill="#000000" font-family="sans-serif" font-size="14" lengthAdjust="spacing" textLength="113" x="231.5" y="1197.9597">Getters &amp; setters</text><line style="stroke:#181818;stroke-width:1.0;stroke-dasharray:1.0,2.0;" x1="344.5" x2="552.5" y1="1193.1687" y2="1193.1687"/><ellipse cx="33.5" cy="1363.5515" fill="#84BE84" rx="3" ry="3" style="stroke:#038048;stroke-width:1.0;"/><text fill="#000000" font-family="sans-serif" font-size="14" lengthAdjust="spacing" text-decoration="underline" textLength="192" x="42.5" y="1367.3425">boolean isValidSize(int size)</text><ellipse cx="33.5" cy="1380.0398" fill="#84BE84" rx="3" ry="3" style="stroke:#038048;stroke-width:1.0;"/><text fill="#000000" font-family="sans-serif" font-size="14" lengthAdjust="spacing" text-decoration="underline" textLength="283" x="42.5" y="1383.8308">boolean canHaveAsFiletype(Filetype type)</text><line style="stroke:#181818;stroke-width:1.0;stroke-dasharray:1.0,2.0;" x1="23.5" x2="256.5" y1="1345.5632" y2="1345.5632"/><text fill="#000000" font-family="sans-serif" font-size="14" lengthAdjust="spacing" textLength="63" x="256.5" y="1350.3542">Checkers</text><line style="stroke:#181818;stroke-width:1.0;stroke-dasharray:1.0,2.0;" x1="319.5" x2="552.5" y1="1345.5632" y2="1345.5632"/><ellipse cx="33.5" cy="1417.0163" fill="#84BE84" rx="3" ry="3" style="stroke:#038048;stroke-width:1.0;"/><text fill="#000000" font-family="sans-serif" font-size="14" lengthAdjust="spacing" textLength="153" x="42.5" y="1420.8073">boolean isDeleteable()</text><ellipse cx="33.5" cy="1433.5046" fill="#84BE84" rx="3" ry="3" style="stroke:#038048;stroke-width:1.0;"/><text fill="#000000" font-family="sans-serif" font-size="14" lengthAdjust="spacing" textLength="170" x="42.5" y="1437.2956">void delete() (destructor)</text><ellipse cx="33.5" cy="1449.9929" fill="#84BE84" rx="3" ry="3" style="stroke:#038048;stroke-width:1.0;"/><text fill="#000000" font-family="sans-serif" font-size="14" lengthAdjust="spacing" textLength="160" x="42.5" y="1453.7839">int getTotalDiskUsage()</text><ellipse cx="33.5" cy="1466.4812" fill="#84BE84" rx="3" ry="3" style="stroke:#038048;stroke-width:1.0;"/><text fill="#000000" font-family="sans-serif" font-size="14" lengthAdjust="spacing" textLength="188" x="42.5" y="1470.2722">boolean canHaveAsParent()</text><line style="stroke:#181818;stroke-width:1.0;stroke-dasharray:1.0,2.0;" x1="23.5" x2="255" y1="1399.028" y2="1399.028"/><text fill="#000000" font-family="sans-serif" font-size="14" lengthAdjust="spacing" textLength="66" x="255" y="1403.8191">Overrides</text><line style="stroke:#181818;stroke-width:1.0;stroke-dasharray:1.0,2.0;" x1="321" x2="552.5" y1="1399.028" y2="1399.028"/></g><!--class Filetype--><g id="elem_Filetype"><rect codeLine="68" fill="#F1F1F1" height="97.4648" id="Filetype" rx="2.5" ry="2.5" style="stroke:#181818;stroke-width:0.5;" width="92" x="242" y="1568.72"/><ellipse cx="260.15" cy="1584.72" fill="#EB937F" rx="11" ry="11" style="stroke:#181818;stroke-width:1.0;"/><path d="M264.2643,1590.72 L256.5445,1590.72 L256.5445,1578.3269 L264.2643,1578.3269 L264.2643,1580.4851 L258.9933,1580.4851 L258.9933,1583.158 L263.7662,1583.158 L263.7662,1585.3162 L258.9933,1585.3162 L258.9933,1588.5618 L264.2643,1588.5618 Z " fill="#000000"/><text fill="#000000" font-family="sans-serif" font-size="14" lengthAdjust="spacing" textLength="53" x="274.85" y="1590.011">Filetype</text><line style="stroke:#181818;stroke-width:0.5;" x1="243" x2="333" y1="1600.72" y2="1600.72"/><line style="stroke:#181818;stroke-width:0.5;" x1="243" x2="333" y1="1608.72" y2="1608.72"/><text fill="#000000" font-family="sans-serif" font-size="14" lengthAdjust="spacing" textLength="78" x="248" y="1626.2552">TEXT("txt"),</text><text fill="#000000" font-family="sans-serif" font-size="14" lengthAdjust="spacing" textLength="73" x="248" y="1642.7434">PDF("pdf"),</text><text fill="#000000" font-family="sans-serif" font-size="14" lengthAdjust="spacing" textLength="80" x="248" y="1659.2317">JAVA("java")</text></g><!--class Directory--><g id="elem_Directory"><rect codeLine="74" fill="#F1F1F1" height="525.6719" id="Directory" rx="2.5" ry="2.5" style="stroke:#181818;stroke-width:0.5;" width="405" x="588.5" y="966.04"/><ellipse cx="755.75" cy="982.04" fill="#ADD1B2" rx="11" ry="11" style="stroke:#181818;stroke-width:1.0;"/><path d="M758.7231,987.6831 Q758.1421,987.9819 757.5029,988.1313 Q756.8638,988.2807 756.1582,988.2807 Q753.6514,988.2807 752.3315,986.6289 Q751.0117,984.977 751.0117,981.8559 Q751.0117,978.7265 752.3315,977.0747 Q753.6514,975.4228 756.1582,975.4228 Q756.8638,975.4228 757.5112,975.5722 Q758.1587,975.7216 758.7231,976.0205 L758.7231,978.7431 Q758.0923,978.1621 757.4988,977.8923 Q756.9053,977.6225 756.2744,977.6225 Q754.9297,977.6225 754.2449,978.6892 Q753.5601,979.7558 753.5601,981.8559 Q753.5601,983.9477 754.2449,985.0144 Q754.9297,986.081 756.2744,986.081 Q756.9053,986.081 757.4988,985.8112 Q758.0923,985.5415 758.7231,984.9604 Z " fill="#000000"/><text fill="#000000" font-family="sans-serif" font-size="14" lengthAdjust="spacing" textLength="62" x="776.25" y="987.331">Directory</text><line style="stroke:#181818;stroke-width:0.5;" x1="589.5" x2="992.5" y1="998.04" y2="998.04"/><rect fill="none" height="6" style="stroke:#C82930;stroke-width:1.0;" width="6" x="596.5" y="1008.7841"/><text fill="#000000" font-family="sans-serif" font-size="14" lengthAdjust="spacing" textLength="153" x="608.5" y="1015.5752">ArrayList&lt;Item&gt; items</text><rect fill="none" height="6" style="stroke:#C82930;stroke-width:1.0;" width="6" x="596.5" y="1025.2724"/><text fill="#000000" font-family="sans-serif" font-size="14" lengthAdjust="spacing" textLength="123" x="608.5" y="1032.0634">boolean writeable</text><line style="stroke:#181818;stroke-width:0.5;" x1="589.5" x2="992.5" y1="1039.0166" y2="1039.0166"/><ellipse cx="599.5" cy="1052.7607" fill="#84BE84" rx="3" ry="3" style="stroke:#038048;stroke-width:1.0;"/><text fill="#000000" font-family="sans-serif" font-size="14" lengthAdjust="spacing" textLength="379" x="608.5" y="1056.5517">Directory(Directory dir, String name, boolean writeable)</text><ellipse cx="599.5" cy="1069.249" fill="#84BE84" rx="3" ry="3" style="stroke:#038048;stroke-width:1.0;"/><text fill="#000000" font-family="sans-serif" font-size="14" lengthAdjust="spacing" textLength="248" x="608.5" y="1073.04">Directory(Directory dir, String name)</text><ellipse cx="599.5" cy="1085.7373" fill="#84BE84" rx="3" ry="3" style="stroke:#038048;stroke-width:1.0;"/><text fill="#000000" font-family="sans-serif" font-size="14" lengthAdjust="spacing" textLength="278" x="608.5" y="1089.5283">Directory(String name, boolean writable)</text><ellipse cx="599.5" cy="1102.2255" fill="#84BE84" rx="3" ry="3" style="stroke:#038048;stroke-width:1.0;"/><text fill="#000000" font-family="sans-serif" font-size="14" lengthAdjust="spacing" textLength="155" x="608.5" y="1106.0166">Directory(String name)</text><line style="stroke:#181818;stroke-width:0.5;" x1="589.5" x2="992.5" y1="1112.9697" y2="1112.9697"/><ellipse cx="599.5" cy="1126.7138" fill="#84BE84" rx="3" ry="3" style="stroke:#038048;stroke-width:1.0;"/><text fill="#000000" font-family="sans-serif" font-size="14" lengthAdjust="spacing" textLength="163" x="608.5" y="1130.5048">void addItem(Item item)</text><ellipse cx="599.5" cy="1143.2021" fill="#84BE84" rx="3" ry="3" style="stroke:#038048;stroke-width:1.0;"/><text fill="#000000" font-family="sans-serif" font-size="14" lengthAdjust="spacing" textLength="110" x="608.5" y="1146.9931">int getNbItems()</text><ellipse cx="599.5" cy="1159.6904" fill="#84BE84" rx="3" ry="3" style="stroke:#038048;stroke-width:1.0;"/><text fill="#000000" font-family="sans-serif" font-size="14" lengthAdjust="spacing" textLength="172" x="608.5" y="1163.4814">Item getItemAt(int index)</text><ellipse cx="599.5" cy="1176.1787" fill="#84BE84" rx="3" ry="3" style="stroke:#038048;stroke-width:1.0;"/><text fill="#000000" font-family="sans-serif" font-size="14" lengthAdjust="spacing" textLength="179" x="608.5" y="1179.9697">Item getItem(String name)</text><ellipse cx="599.5" cy="1192.667" fill="#84BE84" rx="3" ry="3" style="stroke:#038048;stroke-width:1.0;"/><text fill="#000000" font-family="sans-serif" font-size="14" lengthAdjust="spacing" textLength="339" x="608.5" y="1196.458">boolean containsDiskItemWithName(String name)</text><ellipse cx="599.5" cy="1209.1552" fill="#84BE84" rx="3" ry="3" style="stroke:#038048;stroke-width:1.0;"/><text fill="#000000" font-family="sans-serif" font-size="14" lengthAdjust="spacing" textLength="173" x="608.5" y="1212.9463">int getIndexOf(Item item)</text><ellipse cx="599.5" cy="1225.6435" fill="#84BE84" rx="3" ry="3" style="stroke:#038048;stroke-width:1.0;"/><text fill="#000000" font-family="sans-serif" font-size="14" lengthAdjust="spacing" textLength="205" x="608.5" y="1229.4345">boolean hasAsItem(Item item)</text><ellipse cx="599.5" cy="1242.1318" fill="#84BE84" rx="3" ry="3" style="stroke:#038048;stroke-width:1.0;"/><text fill="#000000" font-family="sans-serif" font-size="14" lengthAdjust="spacing" textLength="112" x="608.5" y="1245.9228">void makeRoot()</text><rect fill="#F24D5C" height="6" style="stroke:#C82930;stroke-width:1.0;" width="6" x="596.5" y="1255.6201"/><text fill="#000000" font-family="sans-serif" font-size="14" lengthAdjust="spacing" textLength="210" x="608.5" y="1262.4111">int getIndexForItem(Item item)</text><rect fill="#F24D5C" height="6" style="stroke:#C82930;stroke-width:1.0;" width="6" x="596.5" y="1272.1084"/><text fill="#000000" font-family="sans-serif" font-size="14" lengthAdjust="spacing" textLength="227" x="608.5" y="1278.8994">void insertItemAtIndex(int index)</text><ellipse cx="599.5" cy="1291.5966" fill="#84BE84" rx="3" ry="3" style="stroke:#038048;stroke-width:1.0;"/><text fill="#000000" font-family="sans-serif" font-size="14" lengthAdjust="spacing" textLength="127" x="608.5" y="1295.3877">void setWriteable()</text><ellipse cx="599.5" cy="1308.0849" fill="#84BE84" rx="3" ry="3" style="stroke:#038048;stroke-width:1.0;"/><text fill="#000000" font-family="sans-serif" font-size="14" lengthAdjust="spacing" textLength="145" x="608.5" y="1311.8759">boolean isWriteable()</text><ellipse cx="599.5" cy="1345.0615" fill="#84BE84" rx="3" ry="3" style="stroke:#038048;stroke-width:1.0;"/><text fill="#000000" font-family="sans-serif" font-size="14" lengthAdjust="spacing" text-decoration="underline" textLength="209" x="608.5" y="1348.8525">boolean isValidItem(Item item)</text><ellipse cx="599.5" cy="1361.5498" fill="#84BE84" rx="3" ry="3" style="stroke:#038048;stroke-width:1.0;"/><text fill="#000000" font-family="sans-serif" font-size="14" lengthAdjust="spacing" textLength="177" x="608.5" y="1365.3408">boolean hasProperItems()</text><line style="stroke:#181818;stroke-width:1.0;stroke-dasharray:1.0,2.0;" x1="589.5" x2="759.5" y1="1327.0732" y2="1327.0732"/><text fill="#000000" font-family="sans-serif" font-size="14" lengthAdjust="spacing" textLength="63" x="759.5" y="1331.8642">Checkers</text><line style="stroke:#181818;stroke-width:1.0;stroke-dasharray:1.0,2.0;" x1="822.5" x2="992.5" y1="1327.0732" y2="1327.0732"/><ellipse cx="599.5" cy="1398.5263" fill="#84BE84" rx="3" ry="3" style="stroke:#038048;stroke-width:1.0;"/><text fill="#000000" font-family="sans-serif" font-size="14" lengthAdjust="spacing" textLength="237" x="608.5" y="1402.3173">boolean isValidName(String name)</text><ellipse cx="599.5" cy="1415.0146" fill="#84BE84" rx="3" ry="3" style="stroke:#038048;stroke-width:1.0;"/><text fill="#000000" font-family="sans-serif" font-size="14" lengthAdjust="spacing" textLength="266" x="608.5" y="1418.8056">boolean canHaveAsName(String name)</text><ellipse cx="599.5" cy="1431.5029" fill="#84BE84" rx="3" ry="3" style="stroke:#038048;stroke-width:1.0;"/><text fill="#000000" font-family="sans-serif" font-size="14" lengthAdjust="spacing" textLength="153" x="608.5" y="1435.2939">boolean isDeleteable()</text><ellipse cx="599.5" cy="1447.9912" fill="#84BE84" rx="3" ry="3" style="stroke:#038048;stroke-width:1.0;"/><text fill="#000000" font-family="sans-serif" font-size="14" lengthAdjust="spacing" textLength="170" x="608.5" y="1451.7822">void delete() (destructor)</text><ellipse cx="599.5" cy="1464.4795" fill="#84BE84" rx="3" ry="3" style="stroke:#038048;stroke-width:1.0;"/><text fill="#000000" font-family="sans-serif" font-size="14" lengthAdjust="spacing" textLength="160" x="608.5" y="1468.2705">int getTotalDiskUsage()</text><ellipse cx="599.5" cy="1480.9677" fill="#84BE84" rx="3" ry="3" style="stroke:#038048;stroke-width:1.0;"/><text fill="#000000" font-family="sans-serif" font-size="14" lengthAdjust="spacing" textLength="188" x="608.5" y="1484.7588">boolean canHaveAsParent()</text><line style="stroke:#181818;stroke-width:1.0;stroke-dasharray:1.0,2.0;" x1="589.5" x2="758" y1="1380.538" y2="1380.538"/><text fill="#000000" font-family="sans-serif" font-size="14" lengthAdjust="spacing" textLength="66" x="758" y="1385.3291">Overrides</text><line style="stroke:#181818;stroke-width:1.0;stroke-dasharray:1.0,2.0;" x1="824" x2="992.5" y1="1380.538" y2="1380.538"/></g><!--class Link--><g id="elem_Link"><rect codeLine="107" fill="#F1F1F1" height="245.3711" id="Link" rx="2.5" ry="2.5" style="stroke:#181818;stroke-width:0.5;" width="334" x="397" y="643.67"/><ellipse cx="545.75" cy="659.67" fill="#ADD1B2" rx="11" ry="11" style="stroke:#181818;stroke-width:1.0;"/><path d="M548.7231,665.3131 Q548.1421,665.6119 547.5029,665.7613 Q546.8638,665.9107 546.1582,665.9107 Q543.6514,665.9107 542.3315,664.2589 Q541.0117,662.607 541.0117,659.4859 Q541.0117,656.3565 542.3315,654.7047 Q543.6514,653.0528 546.1582,653.0528 Q546.8638,653.0528 547.5112,653.2022 Q548.1587,653.3516 548.7231,653.6505 L548.7231,656.3731 Q548.0923,655.7921 547.4988,655.5223 Q546.9053,655.2525 546.2744,655.2525 Q544.9297,655.2525 544.2449,656.3192 Q543.5601,657.3858 543.5601,659.4859 Q543.5601,661.5777 544.2449,662.6444 Q544.9297,663.711 546.2744,663.711 Q546.9053,663.711 547.4988,663.4412 Q548.0923,663.1715 548.7231,662.5904 Z " fill="#000000"/><text fill="#000000" font-family="sans-serif" font-size="14" lengthAdjust="spacing" textLength="28" x="566.25" y="664.961">Link</text><line style="stroke:#181818;stroke-width:0.5;" x1="398" x2="730" y1="675.67" y2="675.67"/><rect fill="#F24D5C" height="6" style="stroke:#C82930;stroke-width:1.0;" width="6" x="405" y="686.4141"/><text fill="#000000" font-family="sans-serif" font-size="14" lengthAdjust="spacing" textLength="230" x="417" y="693.2052">Item linkedItem (not another link)</text><line style="stroke:#181818;stroke-width:0.5;" x1="398" x2="730" y1="700.1583" y2="700.1583"/><ellipse cx="408" cy="713.9024" fill="#84BE84" rx="3" ry="3" style="stroke:#038048;stroke-width:1.0;"/><text fill="#000000" font-family="sans-serif" font-size="14" lengthAdjust="spacing" textLength="308" x="417" y="717.6934">Link(Directory dir, String name, Filetype type)</text><line style="stroke:#181818;stroke-width:1.0;stroke-dasharray:1.0,2.0;" x1="398" x2="730" y1="724.6466" y2="724.6466"/><ellipse cx="408" cy="738.3907" fill="#84BE84" rx="3" ry="3" style="stroke:#038048;stroke-width:1.0;"/><text fill="#000000" font-family="sans-serif" font-size="14" lengthAdjust="spacing" textLength="196" x="417" y="742.1817">void changeLinkTo(Link link)</text><ellipse cx="408" cy="754.879" fill="#84BE84" rx="3" ry="3" style="stroke:#038048;stroke-width:1.0;"/><text fill="#000000" font-family="sans-serif" font-size="14" lengthAdjust="spacing" textLength="86" x="417" y="758.67">void unlink()</text><ellipse cx="408" cy="791.8555" fill="#84BE84" rx="3" ry="3" style="stroke:#038048;stroke-width:1.0;"/><text fill="#000000" font-family="sans-serif" font-size="14" lengthAdjust="spacing" text-decoration="underline" textLength="254" x="417" y="795.6466">boolean isValidLinkedItem(Item item)</text><ellipse cx="408" cy="808.3438" fill="#84BE84" rx="3" ry="3" style="stroke:#038048;stroke-width:1.0;"/><text fill="#000000" font-family="sans-serif" font-size="14" lengthAdjust="spacing" textLength="215" x="417" y="812.1348">boolean hasProperLinkedItem()</text><line style="stroke:#181818;stroke-width:1.0;stroke-dasharray:1.0,2.0;" x1="398" x2="532.5" y1="773.8673" y2="773.8673"/><text fill="#000000" font-family="sans-serif" font-size="14" lengthAdjust="spacing" textLength="63" x="532.5" y="778.6583">Checkers</text><line style="stroke:#181818;stroke-width:1.0;stroke-dasharray:1.0,2.0;" x1="595.5" x2="730" y1="773.8673" y2="773.8673"/><ellipse cx="408" cy="845.3204" fill="#84BE84" rx="3" ry="3" style="stroke:#038048;stroke-width:1.0;"/><text fill="#000000" font-family="sans-serif" font-size="14" lengthAdjust="spacing" textLength="170" x="417" y="849.1114">void delete() (destructor)</text><ellipse cx="408" cy="861.8087" fill="#84BE84" rx="3" ry="3" style="stroke:#038048;stroke-width:1.0;"/><text fill="#000000" font-family="sans-serif" font-size="14" lengthAdjust="spacing" textLength="160" x="417" y="865.5997">int getTotalDiskUsage()</text><ellipse cx="408" cy="878.297" fill="#84BE84" rx="3" ry="3" style="stroke:#038048;stroke-width:1.0;"/><text fill="#000000" font-family="sans-serif" font-size="14" lengthAdjust="spacing" textLength="188" x="417" y="882.088">boolean canHaveAsParent()</text><line style="stroke:#181818;stroke-width:1.0;stroke-dasharray:1.0,2.0;" x1="398" x2="531" y1="827.3321" y2="827.3321"/><text fill="#000000" font-family="sans-serif" font-size="14" lengthAdjust="spacing" textLength="66" x="531" y="832.1231">Overrides</text><line style="stroke:#181818;stroke-width:1.0;stroke-dasharray:1.0,2.0;" x1="597" x2="730" y1="827.3321" y2="827.3321"/></g><!--reverse link Item to Link--><g id="link_Item_Link"><path codeLine="123" d="M564,585.05 C564,611.54 564,619.46 564,643.36 " fill="none" id="Item-backto-Link" style="stroke:#181818;stroke-width:1.0;"/><polygon fill="none" points="564,567.05,558,585.05,570,585.05,564,567.05" style="stroke:#181818;stroke-width:1.0;"/><text fill="#000000" font-family="sans-serif" font-size="13" lengthAdjust="spacing" textLength="82" x="565" y="610.2384">inherits from</text></g><!--reverse link Item to File--><g id="link_Item_File"><path codeLine="124" d="M368.889,507.3342 C334.359,553.2342 313.99,590.24 295,643.67 C257.25,749.88 250.96,873.96 255.92,980.39 " fill="none" id="Item-backto-File" style="stroke:#181818;stroke-width:1.0;"/><polygon fill="none" points="379.71,492.95,364.0942,503.7272,373.6837,510.9412,379.71,492.95" style="stroke:#181818;stroke-width:1.0;"/><text fill="#000000" font-family="sans-serif" font-size="13" lengthAdjust="spacing" textLength="82" x="296" y="771.4284">inherits from</text></g><!--reverse link Item to Directory--><g id="link_Item_Directory"><path codeLine="125" d="M728.0536,583.5104 C738.9736,608.8504 741.49,618.11 749,643.67 C779.21,746.48 791.66,863.63 795.86,965.91 " fill="none" id="Item-backto-Directory" style="stroke:#181818;stroke-width:1.0;"/><polygon fill="none" points="720.93,566.98,722.5435,585.8849,733.5637,581.1359,720.93,566.98" style="stroke:#181818;stroke-width:1.0;"/><text fill="#000000" font-family="sans-serif" font-size="13" lengthAdjust="spacing" textLength="82" x="792" y="771.4284">inherits from</text></g><!--link File to Filetype--><g id="link_File_Filetype"><path codeLine="127" d="M288,1477.71 C288,1512.02 288,1543.84 288,1568.32 " fill="none" id="File-Filetype" style="stroke:#181818;stroke-width:1.0;stroke-dasharray:7.0,7.0;"/><text fill="#000000" font-family="sans-serif" font-size="13" lengthAdjust="spacing" textLength="29" x="289" y="1535.2884">uses</text></g><!--link Link to File--><g id="link_Link_File"><path codeLine="129" d="M490.94,889.26 C474.01,917.5 458.4858,943.4243 439.5958,974.9243 " fill="none" id="Link-to-File" style="stroke:#181818;stroke-width:1.0;"/><polygon fill="#181818" points="436.51,980.07,444.5691,974.4087,439.0815,975.7819,437.7082,970.2943,436.51,980.07" style="stroke:#181818;stroke-width:1.0;"/><text fill="#000000" font-family="sans-serif" font-size="13" lengthAdjust="spacing" textLength="65" x="467" y="932.6084">references</text></g><!--link Link to Directory--><g id="link_Link_Directory"><path codeLine="130" d="M624.09,889.26 C635.91,913.24 646.0767,933.8785 659.1867,960.4685 " fill="none" id="Link-to-Directory" style="stroke:#181818;stroke-width:1.0;"/><polygon fill="#181818" points="661.84,965.85,661.4477,956.009,659.6289,961.3655,654.2724,959.5467,661.84,965.85" style="stroke:#181818;stroke-width:1.0;"/><text fill="#000000" font-family="sans-serif" font-size="13" lengthAdjust="spacing" textLength="65" x="644" y="932.6084">references</text></g><!--SRC=[jLPRRzem57xFhx1uc88A_82ggeJAkdNg1RMitLjrI4uQZyH6jc5btVxxR2SupWLQLfK72EVo-To-uomXMi0JaeHcA3TIOKvUWW3cKWc85Bae14H_XkHE2SgU28CSIya4599882ZAsOpMvJcFQKAZbeuAZ1GN6x84WKm5ZuzMSsGF2zqXaFU3qQXKhJcDIPG2Uy9hVNpeXT8lJUQSPmYCK3d131N2FCEmx_l7LXxsIHYZpczbecXwfo1lrYWoM2xr0T-bhiqK1ULnQ4l1LOgY1fhpDOPLJZ5rwahuXEgMSnLsX5hQt8WB5jldivHcyKtI3KcPCc0phY2RKBcmyJdOiYZQO3oNF5ifd89AdRf8_nQZbP1qRTn6eo-e50f9FX5PFBcALs2suFsoUpPdMGfRNHYI5wbqmwE_dly44rXbFinHCI1QT-RDJajvrHYWLX0jWywvCtcUfHWj_FHSd5KlxY6ZSIqW2nVhhtRZhF5henW1-mfh7ClkGBkGdSlKaYFicC-fu4iKJlyt2A8Cf2JdciAEgsPI9FsDpROOUGxFD5_bTvKweGmo2w0sIoJcgzHip_qbQ46fYgx6l3wc0tz534YISIYY6BHn1lNZ-cy5RNZLDmIo38HcXCbIZxk26bLboeL2rjGE_UrYYk8RxAD8oKRhqXnDXsFIRz3tggf_wETjqzBwxRD7xCEfUEJq3zkIT-mVNtS0IpgpQncxMNO9jPfdTgsWUXsx8z-tnlSloDqaqoH2jighDXGycdt-CGjxwbdr-WChc4xEmzuoJhR_lutlns7l9woXvp6ncjyj7ST2mEQIIdLYhf5JegkUozSfve3sKg85q3_0lMsx4xiRkeRb8hUTWZYsTxgzEatAZJPTpur6klvOEoqtlsDb1uoo69-xz7ltBcSAA9Dc0epj0rNfBfQKeLoOS_IrsmhLMxnZsPrDyHu02_Gk-M4D-9oBBjUImpfI56NIrhoT-GTokJkdrdspxTHeH1nfIGTh3xiOF-PbxXrRe23m9MKBnrrRcqnBqDQAX8mh0io-2bgvD_R6yV-lh-8ACXWp7jeO2dZFPCMCwB0ENxhOtz1dpxXxGNzazMru9t-6Grl8OmsbQqoL98dWkQSrLTojTVLlcWJs5KbFyBOBnsGbKGQ1hVLmU5e22qnG1nLfbTDue9vQ1_qF]--></g></svg>