<?xml version="1.0" encoding="us-ascii" standalone="no"?><svg xmlns="http://www.w3.org/2000/svg" xmlns:xlink="http://www.w3.org/1999/xlink" contentStyleType="text/css" height="2104px" preserveAspectRatio="none" style="width:682px;height:2104px;background:#FFFFFF;" version="1.1" viewBox="0 0 682 2104" width="682px" zoomAndPan="magnify"><defs/><g><!--cluster filesystem--><g id="cluster_filesystem"><path d="M8.5,6 L85.5,6 A3.75,3.75 0 0 1 88,8.5 L95,28.4883 L641.5,28.4883 A2.5,2.5 0 0 1 644,30.9883 L644,2095.4 A2.5,2.5 0 0 1 641.5,2097.9 L8.5,2097.9 A2.5,2.5 0 0 1 6,2095.4 L6,8.5 A2.5,2.5 0 0 1 8.5,6 " fill="none" style="stroke:#000000;stroke-width:1.5;"/><line style="stroke:#000000;stroke-width:1.5;" x1="6" x2="95" y1="28.4883" y2="28.4883"/><text fill="#000000" font-family="sans-serif" font-size="14" font-weight="bold" lengthAdjust="spacing" textLength="76" x="10" y="21.5352">filesystem</text></g><!--class Item--><g id="elem_Item"><rect codeLine="4" fill="#F1F1F1" height="509.1836" id="Item" rx="2.5" ry="2.5" style="stroke:#181818;stroke-width:0.5;" width="363" x="161.5" y="41"/><ellipse cx="323.75" cy="57" fill="#A9DCDF" rx="11" ry="11" style="stroke:#181818;stroke-width:1.0;"/><path d="M323.8633,52.3481 L322.7095,57.4199 L325.0254,57.4199 Z M322.3691,50.1069 L325.3657,50.1069 L328.7109,62.5 L326.2622,62.5 L325.4985,59.437 L322.2197,59.437 L321.4727,62.5 L319.0239,62.5 Z " fill="#000000"/><text fill="#000000" font-family="sans-serif" font-size="14" font-style="italic" lengthAdjust="spacing" textLength="30" x="344.25" y="62.291">Item</text><line style="stroke:#181818;stroke-width:0.5;" x1="162.5" x2="523.5" y1="73" y2="73"/><rect fill="none" height="6" style="stroke:#C82930;stroke-width:1.0;" width="6" x="169.5" y="83.7441"/><text fill="#000000" font-family="sans-serif" font-size="14" lengthAdjust="spacing" textLength="83" x="181.5" y="90.5352">String name</text><rect fill="none" height="6" style="stroke:#C82930;stroke-width:1.0;" width="6" x="169.5" y="100.2324"/><text fill="#000000" font-family="sans-serif" font-size="14" lengthAdjust="spacing" textLength="125" x="181.5" y="107.0234">Date creationTime</text><rect fill="none" height="6" style="stroke:#C82930;stroke-width:1.0;" width="6" x="169.5" y="116.7207"/><text fill="#000000" font-family="sans-serif" font-size="14" lengthAdjust="spacing" textLength="155" x="181.5" y="123.5117">Date modificationTime</text><rect fill="none" height="6" style="stroke:#C82930;stroke-width:1.0;" width="6" x="169.5" y="133.209"/><text fill="#000000" font-family="sans-serif" font-size="14" lengthAdjust="spacing" textLength="173" x="181.5" y="140">Directory parentDirectory</text><line style="stroke:#181818;stroke-width:0.5;" x1="162.5" x2="523.5" y1="146.9531" y2="146.9531"/><ellipse cx="172.5" cy="160.6973" fill="#84BE84" rx="3" ry="3" style="stroke:#038048;stroke-width:1.0;"/><text fill="#000000" font-family="sans-serif" font-size="14" lengthAdjust="spacing" textLength="123" x="181.5" y="164.4883">Item(String name)</text><line style="stroke:#181818;stroke-width:1.0;stroke-dasharray:1.0,2.0;" x1="162.5" x2="523.5" y1="171.4414" y2="171.4414"/><ellipse cx="172.5" cy="185.1855" fill="#84BE84" rx="3" ry="3" style="stroke:#038048;stroke-width:1.0;"/><text fill="#000000" font-family="sans-serif" font-size="14" lengthAdjust="spacing" textLength="215" x="181.5" y="188.9766">void changeName(String name)</text><ellipse cx="172.5" cy="201.6738" fill="#84BE84" rx="3" ry="3" style="stroke:#038048;stroke-width:1.0;"/><text fill="#000000" font-family="sans-serif" font-size="14" lengthAdjust="spacing" textLength="145" x="181.5" y="205.4648">boolean isDeletable()</text><ellipse cx="172.5" cy="218.1621" fill="#84BE84" rx="3" ry="3" style="stroke:#038048;stroke-width:1.0;"/><text fill="#000000" font-family="sans-serif" font-size="14" lengthAdjust="spacing" textLength="170" x="181.5" y="221.9531">void delete() (destructor)</text><ellipse cx="172.5" cy="234.6504" fill="#84BE84" rx="3" ry="3" style="stroke:#038048;stroke-width:1.0;"/><text fill="#000000" font-family="sans-serif" font-size="14" lengthAdjust="spacing" textLength="335" x="181.5" y="238.4414">boolean hasOverlappingUsagePeriod(Item other)</text><ellipse cx="172.5" cy="251.1387" fill="#84BE84" rx="3" ry="3" style="stroke:#038048;stroke-width:1.0;"/><text fill="#000000" font-family="sans-serif" font-size="14" lengthAdjust="spacing" textLength="165" x="181.5" y="254.9297">void move(Directory dir)</text><ellipse cx="172.5" cy="267.627" fill="#84BE84" rx="3" ry="3" style="stroke:#038048;stroke-width:1.0;"/><text fill="#000000" font-family="sans-serif" font-size="14" lengthAdjust="spacing" textLength="130" x="181.5" y="271.418">Directory getRoot()</text><ellipse cx="172.5" cy="284.1152" fill="#84BE84" rx="3" ry="3" style="stroke:#038048;stroke-width:1.0;"/><text fill="#000000" font-family="sans-serif" font-size="14" lengthAdjust="spacing" textLength="327" x="181.5" y="287.9063">boolean isDirectOrIndirectChildOf(Directory dir)</text><ellipse cx="172.5" cy="300.6035" fill="#84BE84" rx="3" ry="3" style="stroke:#038048;stroke-width:1.0;"/><text fill="#000000" font-family="sans-serif" font-size="14" lengthAdjust="spacing" textLength="160" x="181.5" y="304.3945">int getTotalDiskUsage()</text><ellipse cx="172.5" cy="317.0918" fill="#84BE84" rx="3" ry="3" style="stroke:#038048;stroke-width:1.0;"/><text fill="#000000" font-family="sans-serif" font-size="14" lengthAdjust="spacing" textLength="168" x="181.5" y="320.8828">String getAbsolutePath()</text><ellipse cx="172.5" cy="354.0684" fill="#84BE84" rx="3" ry="3" style="stroke:#038048;stroke-width:1.0;"/><text fill="#000000" font-family="sans-serif" font-size="14" lengthAdjust="spacing" textLength="116" x="181.5" y="357.8594">String getName()</text><rect fill="#F24D5C" height="6" style="stroke:#C82930;stroke-width:1.0;" width="6" x="169.5" y="367.5566"/><text fill="#000000" font-family="sans-serif" font-size="14" lengthAdjust="spacing" textLength="185" x="181.5" y="374.3477">void setName(String name)</text><rect fill="#F24D5C" height="6" style="stroke:#C82930;stroke-width:1.0;" width="6" x="169.5" y="384.0449"/><text fill="#000000" font-family="sans-serif" font-size="14" lengthAdjust="spacing" text-decoration="underline" textLength="165" x="181.5" y="390.8359">String getDefaultName()</text><ellipse cx="172.5" cy="403.5332" fill="#84BE84" rx="3" ry="3" style="stroke:#038048;stroke-width:1.0;"/><text fill="#000000" font-family="sans-serif" font-size="14" lengthAdjust="spacing" textLength="160" x="181.5" y="407.3242">Date getCreationTime()</text><ellipse cx="172.5" cy="420.0215" fill="#84BE84" rx="3" ry="3" style="stroke:#038048;stroke-width:1.0;"/><text fill="#000000" font-family="sans-serif" font-size="14" lengthAdjust="spacing" textLength="186" x="181.5" y="423.8125">Date getModificationTime()</text><rect fill="#F24D5C" height="6" style="stroke:#C82930;stroke-width:1.0;" width="6" x="169.5" y="433.5098"/><text fill="#000000" font-family="sans-serif" font-size="14" lengthAdjust="spacing" textLength="337" x="181.5" y="440.3008">void setModificationTime(Date modificationTime)</text><line style="stroke:#181818;stroke-width:1.0;stroke-dasharray:1.0,2.0;" x1="162.5" x2="286.5" y1="336.0801" y2="336.0801"/><text fill="#000000" font-family="sans-serif" font-size="14" lengthAdjust="spacing" textLength="113" x="286.5" y="340.8711">Getters &amp; setters</text><line style="stroke:#181818;stroke-width:1.0;stroke-dasharray:1.0,2.0;" x1="399.5" x2="523.5" y1="336.0801" y2="336.0801"/><ellipse cx="172.5" cy="473.4863" fill="#84BE84" rx="3" ry="3" style="stroke:#038048;stroke-width:1.0;"/><text fill="#000000" font-family="sans-serif" font-size="14" lengthAdjust="spacing" text-decoration="underline" textLength="273" x="181.5" y="477.2773">boolean isValidCreationTime(Date date)</text><ellipse cx="172.5" cy="489.9746" fill="#84BE84" rx="3" ry="3" style="stroke:#038048;stroke-width:1.0;"/><text fill="#000000" font-family="sans-serif" font-size="14" lengthAdjust="spacing" textLength="237" x="181.5" y="493.7656">boolean isValidName(String name)</text><ellipse cx="172.5" cy="506.4629" fill="#84BE84" rx="3" ry="3" style="stroke:#038048;stroke-width:1.0;"/><text fill="#000000" font-family="sans-serif" font-size="14" lengthAdjust="spacing" textLength="328" x="181.5" y="510.2539">boolean canHaveAsModificationTime(Date date)</text><ellipse cx="172.5" cy="522.9512" fill="#84BE84" rx="3" ry="3" style="stroke:#038048;stroke-width:1.0;"/><text fill="#000000" font-family="sans-serif" font-size="14" lengthAdjust="spacing" textLength="335" x="181.5" y="526.7422">boolean canHaveAsParentDirectory(Directory dir)</text><ellipse cx="172.5" cy="539.4395" fill="#84BE84" rx="3" ry="3" style="stroke:#038048;stroke-width:1.0;"/><text fill="#000000" font-family="sans-serif" font-size="14" lengthAdjust="spacing" textLength="246" x="181.5" y="543.2305">boolean hasProperParentDirectory()</text><line style="stroke:#181818;stroke-width:1.0;stroke-dasharray:1.0,2.0;" x1="162.5" x2="311.5" y1="455.498" y2="455.498"/><text fill="#000000" font-family="sans-serif" font-size="14" lengthAdjust="spacing" textLength="63" x="311.5" y="460.2891">Checkers</text><line style="stroke:#181818;stroke-width:1.0;stroke-dasharray:1.0,2.0;" x1="374.5" x2="523.5" y1="455.498" y2="455.498"/></g><!--class File--><g id="elem_File"><rect codeLine="36" fill="#F1F1F1" height="496.6953" id="File" rx="2.5" ry="2.5" style="stroke:#181818;stroke-width:0.5;" width="531" x="22.5" y="949.56"/><ellipse cx="271.75" cy="965.56" fill="#ADD1B2" rx="11" ry="11" style="stroke:#181818;stroke-width:1.0;"/><path d="M274.7231,971.2031 Q274.1421,971.5019 273.5029,971.6513 Q272.8638,971.8007 272.1582,971.8007 Q269.6514,971.8007 268.3315,970.1489 Q267.0117,968.497 267.0117,965.3759 Q267.0117,962.2465 268.3315,960.5947 Q269.6514,958.9428 272.1582,958.9428 Q272.8638,958.9428 273.5112,959.0922 Q274.1587,959.2416 274.7231,959.5405 L274.7231,962.2631 Q274.0923,961.6821 273.4988,961.4123 Q272.9053,961.1425 272.2744,961.1425 Q270.9297,961.1425 270.2449,962.2092 Q269.5601,963.2758 269.5601,965.3759 Q269.5601,967.4677 270.2449,968.5344 Q270.9297,969.601 272.2744,969.601 Q272.9053,969.601 273.4988,969.3312 Q274.0923,969.0615 274.7231,968.4804 Z " fill="#000000"/><text fill="#000000" font-family="sans-serif" font-size="14" lengthAdjust="spacing" textLength="24" x="292.25" y="970.851">File</text><line style="stroke:#181818;stroke-width:0.5;" x1="23.5" x2="552.5" y1="981.56" y2="981.56"/><rect fill="none" height="6" style="stroke:#C82930;stroke-width:1.0;" width="6" x="30.5" y="992.3041"/><text fill="#000000" font-family="sans-serif" font-size="14" lengthAdjust="spacing" textLength="49" x="42.5" y="999.0952">int size</text><rect fill="none" height="6" style="stroke:#C82930;stroke-width:1.0;" width="6" x="30.5" y="1008.7924"/><text fill="#000000" font-family="sans-serif" font-size="14" lengthAdjust="spacing" text-decoration="underline" textLength="119" x="42.5" y="1015.5834">int maximumSize</text><rect fill="none" height="6" style="stroke:#C82930;stroke-width:1.0;" width="6" x="30.5" y="1025.2807"/><text fill="#000000" font-family="sans-serif" font-size="14" lengthAdjust="spacing" textLength="120" x="42.5" y="1032.0717">final Filetype type</text><rect fill="none" height="6" style="stroke:#C82930;stroke-width:1.0;" width="6" x="30.5" y="1041.769"/><text fill="#000000" font-family="sans-serif" font-size="14" lengthAdjust="spacing" textLength="123" x="42.5" y="1048.56">boolean writeable</text><line style="stroke:#181818;stroke-width:0.5;" x1="23.5" x2="552.5" y1="1055.5131" y2="1055.5131"/><ellipse cx="33.5" cy="1069.2573" fill="#84BE84" rx="3" ry="3" style="stroke:#038048;stroke-width:1.0;"/><text fill="#000000" font-family="sans-serif" font-size="14" lengthAdjust="spacing" textLength="505" x="42.5" y="1073.0483">File(Directory dir, String name, float size, boolean writeable, Filetype type)</text><ellipse cx="33.5" cy="1085.7455" fill="#84BE84" rx="3" ry="3" style="stroke:#038048;stroke-width:1.0;"/><text fill="#000000" font-family="sans-serif" font-size="14" lengthAdjust="spacing" textLength="304" x="42.5" y="1089.5366">File(Directory dir, String name, Filetype type)</text><line style="stroke:#181818;stroke-width:1.0;stroke-dasharray:1.0,2.0;" x1="23.5" x2="552.5" y1="1096.4897" y2="1096.4897"/><ellipse cx="33.5" cy="1110.2338" fill="#84BE84" rx="3" ry="3" style="stroke:#038048;stroke-width:1.0;"/><text fill="#000000" font-family="sans-serif" font-size="14" lengthAdjust="spacing" textLength="151" x="42.5" y="1114.0248">void enlarge(int delta)</text><ellipse cx="33.5" cy="1126.7221" fill="#84BE84" rx="3" ry="3" style="stroke:#038048;stroke-width:1.0;"/><text fill="#000000" font-family="sans-serif" font-size="14" lengthAdjust="spacing" textLength="152" x="42.5" y="1130.5131">void shorten(int delta)</text><rect fill="#F24D5C" height="6" style="stroke:#C82930;stroke-width:1.0;" width="6" x="30.5" y="1140.2104"/><text fill="#000000" font-family="sans-serif" font-size="14" lengthAdjust="spacing" textLength="177" x="42.5" y="1147.0014">void changeSize(int delta)</text><ellipse cx="33.5" cy="1180.187" fill="#84BE84" rx="3" ry="3" style="stroke:#038048;stroke-width:1.0;"/><text fill="#000000" font-family="sans-serif" font-size="14" lengthAdjust="spacing" textLength="82" x="42.5" y="1183.978">int getSize()</text><rect fill="#F24D5C" height="6" style="stroke:#C82930;stroke-width:1.0;" width="6" x="30.5" y="1193.6752"/><text fill="#000000" font-family="sans-serif" font-size="14" lengthAdjust="spacing" textLength="140" x="42.5" y="1200.4663">void setSize(int size)</text><ellipse cx="33.5" cy="1213.1635" fill="#84BE84" rx="3" ry="3" style="stroke:#038048;stroke-width:1.0;"/><text fill="#000000" font-family="sans-serif" font-size="14" lengthAdjust="spacing" textLength="150" x="42.5" y="1216.9545">int getMaximumSize()</text><ellipse cx="33.5" cy="1229.6518" fill="#84BE84" rx="3" ry="3" style="stroke:#038048;stroke-width:1.0;"/><text fill="#000000" font-family="sans-serif" font-size="14" lengthAdjust="spacing" textLength="142" x="42.5" y="1233.4428">Filetype getFiletype()</text><ellipse cx="33.5" cy="1246.1401" fill="#84BE84" rx="3" ry="3" style="stroke:#038048;stroke-width:1.0;"/><text fill="#000000" font-family="sans-serif" font-size="14" lengthAdjust="spacing" textLength="110" x="42.5" y="1249.9311">Sting getName()</text><rect fill="#F24D5C" height="6" style="stroke:#C82930;stroke-width:1.0;" width="6" x="30.5" y="1259.6284"/><text fill="#000000" font-family="sans-serif" font-size="14" lengthAdjust="spacing" textLength="185" x="42.5" y="1266.4194">void setName(String name)</text><ellipse cx="33.5" cy="1279.1166" fill="#84BE84" rx="3" ry="3" style="stroke:#038048;stroke-width:1.0;"/><text fill="#000000" font-family="sans-serif" font-size="14" lengthAdjust="spacing" textLength="127" x="42.5" y="1282.9077">void setWriteable()</text><ellipse cx="33.5" cy="1295.6049" fill="#84BE84" rx="3" ry="3" style="stroke:#038048;stroke-width:1.0;"/><text fill="#000000" font-family="sans-serif" font-size="14" lengthAdjust="spacing" textLength="145" x="42.5" y="1299.3959">boolean isWriteable()</text><line style="stroke:#181818;stroke-width:1.0;stroke-dasharray:1.0,2.0;" x1="23.5" x2="231.5" y1="1162.1987" y2="1162.1987"/><text fill="#000000" font-family="sans-serif" font-size="14" lengthAdjust="spacing" textLength="113" x="231.5" y="1166.9897">Getters &amp; setters</text><line style="stroke:#181818;stroke-width:1.0;stroke-dasharray:1.0,2.0;" x1="344.5" x2="552.5" y1="1162.1987" y2="1162.1987"/><ellipse cx="33.5" cy="1332.5815" fill="#84BE84" rx="3" ry="3" style="stroke:#038048;stroke-width:1.0;"/><text fill="#000000" font-family="sans-serif" font-size="14" lengthAdjust="spacing" text-decoration="underline" textLength="192" x="42.5" y="1336.3725">boolean isValidSize(int size)</text><ellipse cx="33.5" cy="1349.0698" fill="#84BE84" rx="3" ry="3" style="stroke:#038048;stroke-width:1.0;"/><text fill="#000000" font-family="sans-serif" font-size="14" lengthAdjust="spacing" text-decoration="underline" textLength="283" x="42.5" y="1352.8608">boolean canHaveAsFiletype(Filetype type)</text><line style="stroke:#181818;stroke-width:1.0;stroke-dasharray:1.0,2.0;" x1="23.5" x2="256.5" y1="1314.5932" y2="1314.5932"/><text fill="#000000" font-family="sans-serif" font-size="14" lengthAdjust="spacing" textLength="63" x="256.5" y="1319.3842">Checkers</text><line style="stroke:#181818;stroke-width:1.0;stroke-dasharray:1.0,2.0;" x1="319.5" x2="552.5" y1="1314.5932" y2="1314.5932"/><ellipse cx="33.5" cy="1386.0463" fill="#84BE84" rx="3" ry="3" style="stroke:#038048;stroke-width:1.0;"/><text fill="#000000" font-family="sans-serif" font-size="14" lengthAdjust="spacing" textLength="145" x="42.5" y="1389.8373">boolean isDeletable()</text><ellipse cx="33.5" cy="1402.5346" fill="#84BE84" rx="3" ry="3" style="stroke:#038048;stroke-width:1.0;"/><text fill="#000000" font-family="sans-serif" font-size="14" lengthAdjust="spacing" textLength="170" x="42.5" y="1406.3256">void delete() (destructor)</text><ellipse cx="33.5" cy="1419.0229" fill="#84BE84" rx="3" ry="3" style="stroke:#038048;stroke-width:1.0;"/><text fill="#000000" font-family="sans-serif" font-size="14" lengthAdjust="spacing" textLength="160" x="42.5" y="1422.8139">int getTotalDiskUsage()</text><ellipse cx="33.5" cy="1435.5112" fill="#84BE84" rx="3" ry="3" style="stroke:#038048;stroke-width:1.0;"/><text fill="#000000" font-family="sans-serif" font-size="14" lengthAdjust="spacing" textLength="188" x="42.5" y="1439.3022">boolean canHaveAsParent()</text><line style="stroke:#181818;stroke-width:1.0;stroke-dasharray:1.0,2.0;" x1="23.5" x2="255" y1="1368.058" y2="1368.058"/><text fill="#000000" font-family="sans-serif" font-size="14" lengthAdjust="spacing" textLength="66" x="255" y="1372.8491">Overrides</text><line style="stroke:#181818;stroke-width:1.0;stroke-dasharray:1.0,2.0;" x1="321" x2="552.5" y1="1368.058" y2="1368.058"/></g><!--class Filetype--><g id="elem_Filetype"><rect codeLine="67" fill="#F1F1F1" height="97.4648" id="Filetype" rx="2.5" ry="2.5" style="stroke:#181818;stroke-width:0.5;" width="92" x="95" y="1753.84"/><ellipse cx="113.15" cy="1769.84" fill="#EB937F" rx="11" ry="11" style="stroke:#181818;stroke-width:1.0;"/><path d="M117.2643,1775.84 L109.5445,1775.84 L109.5445,1763.4469 L117.2643,1763.4469 L117.2643,1765.6051 L111.9933,1765.6051 L111.9933,1768.278 L116.7662,1768.278 L116.7662,1770.4362 L111.9933,1770.4362 L111.9933,1773.6818 L117.2643,1773.6818 Z " fill="#000000"/><text fill="#000000" font-family="sans-serif" font-size="14" lengthAdjust="spacing" textLength="53" x="127.85" y="1775.131">Filetype</text><line style="stroke:#181818;stroke-width:0.5;" x1="96" x2="186" y1="1785.84" y2="1785.84"/><line style="stroke:#181818;stroke-width:0.5;" x1="96" x2="186" y1="1793.84" y2="1793.84"/><text fill="#000000" font-family="sans-serif" font-size="14" lengthAdjust="spacing" textLength="78" x="101" y="1811.3752">TEXT("txt"),</text><text fill="#000000" font-family="sans-serif" font-size="14" lengthAdjust="spacing" textLength="73" x="101" y="1827.8634">PDF("pdf"),</text><text fill="#000000" font-family="sans-serif" font-size="14" lengthAdjust="spacing" textLength="80" x="101" y="1844.3517">JAVA("java")</text></g><!--class Directory--><g id="elem_Directory"><rect codeLine="73" fill="#F1F1F1" height="558.6484" id="Directory" rx="2.5" ry="2.5" style="stroke:#181818;stroke-width:0.5;" width="405" x="222.5" y="1523.25"/><ellipse cx="389.75" cy="1539.25" fill="#ADD1B2" rx="11" ry="11" style="stroke:#181818;stroke-width:1.0;"/><path d="M392.7231,1544.8931 Q392.1421,1545.1919 391.5029,1545.3413 Q390.8638,1545.4907 390.1582,1545.4907 Q387.6514,1545.4907 386.3315,1543.8389 Q385.0117,1542.187 385.0117,1539.0659 Q385.0117,1535.9365 386.3315,1534.2847 Q387.6514,1532.6328 390.1582,1532.6328 Q390.8638,1532.6328 391.5112,1532.7822 Q392.1587,1532.9316 392.7231,1533.2305 L392.7231,1535.9531 Q392.0923,1535.3721 391.4988,1535.1023 Q390.9053,1534.8325 390.2744,1534.8325 Q388.9297,1534.8325 388.2449,1535.8992 Q387.5601,1536.9658 387.5601,1539.0659 Q387.5601,1541.1577 388.2449,1542.2244 Q388.9297,1543.291 390.2744,1543.291 Q390.9053,1543.291 391.4988,1543.0212 Q392.0923,1542.7515 392.7231,1542.1704 Z " fill="#000000"/><text fill="#000000" font-family="sans-serif" font-size="14" lengthAdjust="spacing" textLength="62" x="410.25" y="1544.541">Directory</text><line style="stroke:#181818;stroke-width:0.5;" x1="223.5" x2="626.5" y1="1555.25" y2="1555.25"/><rect fill="none" height="6" style="stroke:#C82930;stroke-width:1.0;" width="6" x="230.5" y="1565.9941"/><text fill="#000000" font-family="sans-serif" font-size="14" lengthAdjust="spacing" textLength="153" x="242.5" y="1572.7852">ArrayList&lt;Item&gt; items</text><rect fill="none" height="6" style="stroke:#C82930;stroke-width:1.0;" width="6" x="230.5" y="1582.4824"/><text fill="#000000" font-family="sans-serif" font-size="14" lengthAdjust="spacing" textLength="123" x="242.5" y="1589.2734">boolean writeable</text><line style="stroke:#181818;stroke-width:0.5;" x1="223.5" x2="626.5" y1="1596.2266" y2="1596.2266"/><ellipse cx="233.5" cy="1609.9707" fill="#84BE84" rx="3" ry="3" style="stroke:#038048;stroke-width:1.0;"/><text fill="#000000" font-family="sans-serif" font-size="14" lengthAdjust="spacing" textLength="379" x="242.5" y="1613.7617">Directory(Directory dir, String name, boolean writeable)</text><ellipse cx="233.5" cy="1626.459" fill="#84BE84" rx="3" ry="3" style="stroke:#038048;stroke-width:1.0;"/><text fill="#000000" font-family="sans-serif" font-size="14" lengthAdjust="spacing" textLength="248" x="242.5" y="1630.25">Directory(Directory dir, String name)</text><ellipse cx="233.5" cy="1642.9473" fill="#84BE84" rx="3" ry="3" style="stroke:#038048;stroke-width:1.0;"/><text fill="#000000" font-family="sans-serif" font-size="14" lengthAdjust="spacing" textLength="278" x="242.5" y="1646.7383">Directory(String name, boolean writable)</text><ellipse cx="233.5" cy="1659.4355" fill="#84BE84" rx="3" ry="3" style="stroke:#038048;stroke-width:1.0;"/><text fill="#000000" font-family="sans-serif" font-size="14" lengthAdjust="spacing" textLength="155" x="242.5" y="1663.2266">Directory(String name)</text><line style="stroke:#181818;stroke-width:0.5;" x1="223.5" x2="626.5" y1="1670.1797" y2="1670.1797"/><ellipse cx="233.5" cy="1683.9238" fill="#84BE84" rx="3" ry="3" style="stroke:#038048;stroke-width:1.0;"/><text fill="#000000" font-family="sans-serif" font-size="14" lengthAdjust="spacing" textLength="163" x="242.5" y="1687.7148">void addItem(Item item)</text><ellipse cx="233.5" cy="1700.4121" fill="#84BE84" rx="3" ry="3" style="stroke:#038048;stroke-width:1.0;"/><text fill="#000000" font-family="sans-serif" font-size="14" lengthAdjust="spacing" textLength="110" x="242.5" y="1704.2031">int getNbItems()</text><ellipse cx="233.5" cy="1716.9004" fill="#84BE84" rx="3" ry="3" style="stroke:#038048;stroke-width:1.0;"/><text fill="#000000" font-family="sans-serif" font-size="14" lengthAdjust="spacing" textLength="172" x="242.5" y="1720.6914">Item getItemAt(int index)</text><ellipse cx="233.5" cy="1733.3887" fill="#84BE84" rx="3" ry="3" style="stroke:#038048;stroke-width:1.0;"/><text fill="#000000" font-family="sans-serif" font-size="14" lengthAdjust="spacing" textLength="179" x="242.5" y="1737.1797">Item getItem(String name)</text><ellipse cx="233.5" cy="1749.877" fill="#84BE84" rx="3" ry="3" style="stroke:#038048;stroke-width:1.0;"/><text fill="#000000" font-family="sans-serif" font-size="14" lengthAdjust="spacing" textLength="339" x="242.5" y="1753.668">boolean containsDiskItemWithName(String name)</text><ellipse cx="233.5" cy="1766.3652" fill="#84BE84" rx="3" ry="3" style="stroke:#038048;stroke-width:1.0;"/><text fill="#000000" font-family="sans-serif" font-size="14" lengthAdjust="spacing" textLength="173" x="242.5" y="1770.1563">int getIndexOf(Item item)</text><ellipse cx="233.5" cy="1782.8535" fill="#84BE84" rx="3" ry="3" style="stroke:#038048;stroke-width:1.0;"/><text fill="#000000" font-family="sans-serif" font-size="14" lengthAdjust="spacing" textLength="205" x="242.5" y="1786.6445">boolean hasAsItem(Item item)</text><ellipse cx="233.5" cy="1799.3418" fill="#84BE84" rx="3" ry="3" style="stroke:#038048;stroke-width:1.0;"/><text fill="#000000" font-family="sans-serif" font-size="14" lengthAdjust="spacing" textLength="112" x="242.5" y="1803.1328">void makeRoot()</text><rect fill="#F24D5C" height="6" style="stroke:#C82930;stroke-width:1.0;" width="6" x="230.5" y="1812.8301"/><text fill="#000000" font-family="sans-serif" font-size="14" lengthAdjust="spacing" textLength="210" x="242.5" y="1819.6211">int getIndexForItem(Item item)</text><rect fill="#F24D5C" height="6" style="stroke:#C82930;stroke-width:1.0;" width="6" x="230.5" y="1829.3184"/><text fill="#000000" font-family="sans-serif" font-size="14" lengthAdjust="spacing" textLength="227" x="242.5" y="1836.1094">void insertItemAtIndex(int index)</text><rect fill="#F24D5C" height="6" style="stroke:#C82930;stroke-width:1.0;" width="6" x="230.5" y="1845.8066"/><text fill="#000000" font-family="sans-serif" font-size="14" lengthAdjust="spacing" textLength="107" x="242.5" y="1852.5977">void sortItems()</text><ellipse cx="233.5" cy="1865.2949" fill="#84BE84" rx="3" ry="3" style="stroke:#038048;stroke-width:1.0;"/><text fill="#000000" font-family="sans-serif" font-size="14" lengthAdjust="spacing" textLength="127" x="242.5" y="1869.0859">void setWriteable()</text><ellipse cx="233.5" cy="1881.7832" fill="#84BE84" rx="3" ry="3" style="stroke:#038048;stroke-width:1.0;"/><text fill="#000000" font-family="sans-serif" font-size="14" lengthAdjust="spacing" textLength="145" x="242.5" y="1885.5742">boolean isWriteable()</text><ellipse cx="233.5" cy="1898.2715" fill="#84BE84" rx="3" ry="3" style="stroke:#038048;stroke-width:1.0;"/><text fill="#000000" font-family="sans-serif" font-size="14" lengthAdjust="spacing" textLength="150" x="242.5" y="1902.0625">void deleteRecursive()</text><ellipse cx="233.5" cy="1935.248" fill="#84BE84" rx="3" ry="3" style="stroke:#038048;stroke-width:1.0;"/><text fill="#000000" font-family="sans-serif" font-size="14" lengthAdjust="spacing" text-decoration="underline" textLength="209" x="242.5" y="1939.0391">boolean isValidItem(Item item)</text><ellipse cx="233.5" cy="1951.7363" fill="#84BE84" rx="3" ry="3" style="stroke:#038048;stroke-width:1.0;"/><text fill="#000000" font-family="sans-serif" font-size="14" lengthAdjust="spacing" textLength="177" x="242.5" y="1955.5273">boolean hasProperItems()</text><ellipse cx="233.5" cy="1968.2246" fill="none" rx="3" ry="3" style="stroke:#038048;stroke-width:1.0;"/><text fill="#000000" font-family="sans-serif" font-size="14" lengthAdjust="spacing" textLength="211" x="242.5" y="1972.0156">boolean isRecursivelyDeletable</text><line style="stroke:#181818;stroke-width:1.0;stroke-dasharray:1.0,2.0;" x1="223.5" x2="393.5" y1="1917.2598" y2="1917.2598"/><text fill="#000000" font-family="sans-serif" font-size="14" lengthAdjust="spacing" textLength="63" x="393.5" y="1922.0508">Checkers</text><line style="stroke:#181818;stroke-width:1.0;stroke-dasharray:1.0,2.0;" x1="456.5" x2="626.5" y1="1917.2598" y2="1917.2598"/><ellipse cx="233.5" cy="2005.2012" fill="#84BE84" rx="3" ry="3" style="stroke:#038048;stroke-width:1.0;"/><text fill="#000000" font-family="sans-serif" font-size="14" lengthAdjust="spacing" textLength="237" x="242.5" y="2008.9922">boolean isValidName(String name)</text><ellipse cx="233.5" cy="2021.6895" fill="#84BE84" rx="3" ry="3" style="stroke:#038048;stroke-width:1.0;"/><text fill="#000000" font-family="sans-serif" font-size="14" lengthAdjust="spacing" textLength="145" x="242.5" y="2025.4805">boolean isDeletable()</text><ellipse cx="233.5" cy="2038.1777" fill="#84BE84" rx="3" ry="3" style="stroke:#038048;stroke-width:1.0;"/><text fill="#000000" font-family="sans-serif" font-size="14" lengthAdjust="spacing" textLength="170" x="242.5" y="2041.9688">void delete() (destructor)</text><ellipse cx="233.5" cy="2054.666" fill="#84BE84" rx="3" ry="3" style="stroke:#038048;stroke-width:1.0;"/><text fill="#000000" font-family="sans-serif" font-size="14" lengthAdjust="spacing" textLength="160" x="242.5" y="2058.457">int getTotalDiskUsage()</text><ellipse cx="233.5" cy="2071.1543" fill="#84BE84" rx="3" ry="3" style="stroke:#038048;stroke-width:1.0;"/><text fill="#000000" font-family="sans-serif" font-size="14" lengthAdjust="spacing" textLength="188" x="242.5" y="2074.9453">boolean canHaveAsParent()</text><line style="stroke:#181818;stroke-width:1.0;stroke-dasharray:1.0,2.0;" x1="223.5" x2="392" y1="1987.2129" y2="1987.2129"/><text fill="#000000" font-family="sans-serif" font-size="14" lengthAdjust="spacing" textLength="66" x="392" y="1992.0039">Overrides</text><line style="stroke:#181818;stroke-width:1.0;stroke-dasharray:1.0,2.0;" x1="458" x2="626.5" y1="1987.2129" y2="1987.2129"/></g><!--class Link--><g id="elem_Link"><rect codeLine="108" fill="#F1F1F1" height="245.3711" id="Link" rx="2.5" ry="2.5" style="stroke:#181818;stroke-width:0.5;" width="334" x="176" y="627.19"/><ellipse cx="324.75" cy="643.19" fill="#ADD1B2" rx="11" ry="11" style="stroke:#181818;stroke-width:1.0;"/><path d="M327.7231,648.8331 Q327.1421,649.1319 326.5029,649.2813 Q325.8638,649.4307 325.1582,649.4307 Q322.6514,649.4307 321.3315,647.7789 Q320.0117,646.127 320.0117,643.0059 Q320.0117,639.8765 321.3315,638.2247 Q322.6514,636.5728 325.1582,636.5728 Q325.8638,636.5728 326.5112,636.7222 Q327.1587,636.8716 327.7231,637.1705 L327.7231,639.8931 Q327.0923,639.3121 326.4988,639.0423 Q325.9053,638.7725 325.2744,638.7725 Q323.9297,638.7725 323.2449,639.8392 Q322.5601,640.9058 322.5601,643.0059 Q322.5601,645.0977 323.2449,646.1644 Q323.9297,647.231 325.2744,647.231 Q325.9053,647.231 326.4988,646.9612 Q327.0923,646.6915 327.7231,646.1104 Z " fill="#000000"/><text fill="#000000" font-family="sans-serif" font-size="14" lengthAdjust="spacing" textLength="28" x="345.25" y="648.481">Link</text><line style="stroke:#181818;stroke-width:0.5;" x1="177" x2="509" y1="659.19" y2="659.19"/><rect fill="#F24D5C" height="6" style="stroke:#C82930;stroke-width:1.0;" width="6" x="184" y="669.9341"/><text fill="#000000" font-family="sans-serif" font-size="14" lengthAdjust="spacing" textLength="230" x="196" y="676.7252">Item linkedItem (not another link)</text><line style="stroke:#181818;stroke-width:0.5;" x1="177" x2="509" y1="683.6783" y2="683.6783"/><ellipse cx="187" cy="697.4224" fill="#84BE84" rx="3" ry="3" style="stroke:#038048;stroke-width:1.0;"/><text fill="#000000" font-family="sans-serif" font-size="14" lengthAdjust="spacing" textLength="308" x="196" y="701.2134">Link(Directory dir, String name, Filetype type)</text><line style="stroke:#181818;stroke-width:1.0;stroke-dasharray:1.0,2.0;" x1="177" x2="509" y1="708.1666" y2="708.1666"/><rect fill="#F24D5C" height="6" style="stroke:#C82930;stroke-width:1.0;" width="6" x="184" y="718.9107"/><text fill="#000000" font-family="sans-serif" font-size="14" lengthAdjust="spacing" textLength="196" x="196" y="725.7017">void changeLinkTo(Link link)</text><ellipse cx="187" cy="738.399" fill="#84BE84" rx="3" ry="3" style="stroke:#038048;stroke-width:1.0;"/><text fill="#000000" font-family="sans-serif" font-size="14" lengthAdjust="spacing" textLength="86" x="196" y="742.19">void unlink()</text><ellipse cx="187" cy="775.3755" fill="#84BE84" rx="3" ry="3" style="stroke:#038048;stroke-width:1.0;"/><text fill="#000000" font-family="sans-serif" font-size="14" lengthAdjust="spacing" text-decoration="underline" textLength="254" x="196" y="779.1666">boolean isValidLinkedItem(Item item)</text><ellipse cx="187" cy="791.8638" fill="#84BE84" rx="3" ry="3" style="stroke:#038048;stroke-width:1.0;"/><text fill="#000000" font-family="sans-serif" font-size="14" lengthAdjust="spacing" textLength="215" x="196" y="795.6548">boolean hasProperLinkedItem()</text><line style="stroke:#181818;stroke-width:1.0;stroke-dasharray:1.0,2.0;" x1="177" x2="311.5" y1="757.3873" y2="757.3873"/><text fill="#000000" font-family="sans-serif" font-size="14" lengthAdjust="spacing" textLength="63" x="311.5" y="762.1783">Checkers</text><line style="stroke:#181818;stroke-width:1.0;stroke-dasharray:1.0,2.0;" x1="374.5" x2="509" y1="757.3873" y2="757.3873"/><ellipse cx="187" cy="828.8404" fill="#84BE84" rx="3" ry="3" style="stroke:#038048;stroke-width:1.0;"/><text fill="#000000" font-family="sans-serif" font-size="14" lengthAdjust="spacing" textLength="170" x="196" y="832.6314">void delete() (destructor)</text><ellipse cx="187" cy="845.3287" fill="#84BE84" rx="3" ry="3" style="stroke:#038048;stroke-width:1.0;"/><text fill="#000000" font-family="sans-serif" font-size="14" lengthAdjust="spacing" textLength="160" x="196" y="849.1197">int getTotalDiskUsage()</text><ellipse cx="187" cy="861.817" fill="#84BE84" rx="3" ry="3" style="stroke:#038048;stroke-width:1.0;"/><text fill="#000000" font-family="sans-serif" font-size="14" lengthAdjust="spacing" textLength="188" x="196" y="865.608">boolean canHaveAsParent()</text><line style="stroke:#181818;stroke-width:1.0;stroke-dasharray:1.0,2.0;" x1="177" x2="310" y1="810.8521" y2="810.8521"/><text fill="#000000" font-family="sans-serif" font-size="14" lengthAdjust="spacing" textLength="66" x="310" y="815.6431">Overrides</text><line style="stroke:#181818;stroke-width:1.0;stroke-dasharray:1.0,2.0;" x1="376" x2="509" y1="810.8521" y2="810.8521"/></g><!--reverse link Item to Link--><g id="link_Item_Link"><path codeLine="124" d="M343,568.5 C343,594.97 343,602.94 343,626.9 " fill="none" id="Item-backto-Link" style="stroke:#181818;stroke-width:1.0;"/><polygon fill="none" points="343,550.5,337,568.5,349,568.5,343,550.5" style="stroke:#181818;stroke-width:1.0;"/><text fill="#000000" font-family="sans-serif" font-size="13" lengthAdjust="spacing" textLength="82" x="344" y="593.7584">inherits from</text></g><!--reverse link Item to File--><g id="link_Item_File"><path codeLine="125" d="M149.9879,490.0296 C114.3779,535.7396 93.21,573.15 74,627.19 C37.48,729.94 42.65,768.11 74,872.56 C81.81,898.56 92.45,924.41 104.84,949.51 " fill="none" id="Item-backto-File" style="stroke:#181818;stroke-width:1.0;"/><polygon fill="none" points="161.05,475.83,145.2547,486.3423,154.7211,493.717,161.05,475.83" style="stroke:#181818;stroke-width:1.0;"/><text fill="#000000" font-family="sans-serif" font-size="13" lengthAdjust="spacing" textLength="82" x="75" y="754.9384">inherits from</text></g><!--reverse link Item to Directory--><g id="link_Item_Directory"><path codeLine="126" d="M502.8704,566.7816 C515.0504,592.1916 518.5,601.77 528,627.19 C579.22,764.27 580.03,803.99 595,949.56 C617.58,1169.15 643.85,1230.97 595,1446.25 C589.21,1471.76 581.36,1497.58 572.19,1523.05 " fill="none" id="Item-backto-Directory" style="stroke:#181818;stroke-width:1.0;"/><polygon fill="none" points="495.09,550.55,497.4599,569.3751,508.281,564.1881,495.09,550.55" style="stroke:#181818;stroke-width:1.0;"/><text fill="#000000" font-family="sans-serif" font-size="13" lengthAdjust="spacing" textLength="82" x="592" y="916.1284">inherits from</text></g><!--link File to Filetype--><g id="link_File_Filetype"><path codeLine="128" d="M223.93,1446.67 C217.45,1472.51 211.04,1498.4 205,1523.25 C185.4,1603.95 164.05,1698.2 151.63,1753.72 " fill="none" id="File-Filetype" style="stroke:#181818;stroke-width:1.0;stroke-dasharray:7.0,7.0;"/><text fill="#000000" font-family="sans-serif" font-size="13" lengthAdjust="spacing" textLength="29" x="216" y="1489.8184">uses</text></g><!--link Link to File--><g id="link_Link_File"><path codeLine="130" d="M327.93,873.05 C324.98,897.03 322.5148,917.0352 319.2548,943.4552 " fill="none" id="Link-to-File" style="stroke:#181818;stroke-width:1.0;"/><polygon fill="#181818" points="318.52,949.41,323.5921,940.9676,319.1323,944.4476,315.6523,939.9879,318.52,949.41" style="stroke:#181818;stroke-width:1.0;"/><text fill="#000000" font-family="sans-serif" font-size="13" lengthAdjust="spacing" textLength="65" x="324" y="916.1284">references</text></g><!--link Link to Directory--><g id="link_Link_Directory"><path codeLine="131" d="M451.74,872.71 C469.63,889.53 488.67,905.74 508,919.56 C533.23,937.59 554.44,923.33 571,949.56 C629.93,1042.89 592.38,1337.97 571,1446.25 C565.99,1471.61 559.16,1497.43 551.16,1522.99 " fill="none" id="Link-Directory" style="stroke:#181818;stroke-width:1.0;"/><text fill="#000000" font-family="sans-serif" font-size="13" lengthAdjust="spacing" textLength="6" x="452.1835" y="893.2301">*</text><text fill="#000000" font-family="sans-serif" font-size="13" lengthAdjust="spacing" textLength="8" x="546.4049" y="1512.9368">1</text></g><!--link File to Directory--><g id="link_File_Directory"><path codeLine="132" d="M344.32,1446.64 C350.04,1471.8 355.87,1497.48 361.66,1522.94 " fill="none" id="File-Directory" style="stroke:#181818;stroke-width:1.0;"/><text fill="#000000" font-family="sans-serif" font-size="13" lengthAdjust="spacing" textLength="6" x="339.9029" y="1466.8199">*</text><text fill="#000000" font-family="sans-serif" font-size="13" lengthAdjust="spacing" textLength="8" x="351.8713" y="1512.8855">1</text></g><!--SRC=[lLPRRzem57xFhx3oC8MLLDfhLKr2PTqwzO9QrkwjCia9yN1iP1jMrlM_ptQ2urneIwUD1mZdyldSlkCiSRB0Sq0PeI0tKa617eC0pwGIE57eh1GW_OdHZHA4pH731LIICLQ04W5O4Swcf2alU4eoadHqH42YkDYW9HR0bFiVtDzRamDxQkITDWWE3olLcfCK9JbcSxZKcgPLQJBZd09cYCWnK51uHY4Q-Ewf4MiPYbBGUQxCwMtd7CkhDGYAbqkD_qtg6ar049v6jYHSvI0Qe0LVGrJdbXAdheLpKDUSgwWdKcjp9SvOQfzESaBJgwmVa31beAPSOJecSc6ZSw1LHRJ1Q2OvNIcOO9L7feQVGIaG4hr3idnoPQsTR5K7LQziPh8ITaeTeqUfT7kJ9yz_31bUKH_ce1m7hJln9gMZl6YDIoU8Za7lb9ayJt985dvwBiwwuhUOahGHa8LBzLUtFTRufNbBCFk2rp2I_O7s8JkNIPCA_NttPdCY-194ssiGF0L1Gh6Kw5JpsH7N38malw3TDICly0CfLiLDhSu8mzG2gCqIaFcgDDi0VWgYmF2gfgmnRqOzzFV546MKupAAOHTds3nky5hGbbTpIm2ZM6XYc2mrvHLky5NcN2XWRMtiRnXJ5D_WEGPLfBGkxSbrE2Rz5eilwlf7VjusBQtVFdlytf-f1qv_jorvpnBoTNkGg3UxZh4RTPTGftbcuGgYTx8xygzM-VDhSWS5Imu1MnLr5qeQJJzzdqQXUb3XO6W5a_5f52xJRFl_w-Xs58K_y1g77X7hyTsoSIG4tfmJgOxDLV8HwQ8NycM6xLWEBKPq00Pxk7TjTsBtGpUmNEIsKpXDxRLkhq-JSgjDbpEZaQu_raxBpUz8sVaYB8M7FlspMvapXGcJPWACxHrH-IwILA6ScNFqvTi9rLl08zcVJVakW1VWNVHn0_YKYpxNYi8wKX1LqjQydVcMwhoqaj5R6TvXqJKaAo79Ua_wzzUXSrSrWwqntAbqupYkZqTk6Q2URV2g-_X_BusIx-U4BHpLRLcebe0j4ueOLmWp-_PevHvBZECRBhl6XMKmfZooCPJmNjehPaJxDVVSnVwA5dl6_UlyNrRVXdVyEuvj8OyqbAunKH9bWXUUrbHnjzRLlsqIs1SgFPVRBXoXbGGP1BRMSVon0XQGWGugqIgh2T-7Mel23s6DNMBrQdGcVm00]--></g></svg>